<svg xmlns="http://www.w3.org/2000/svg" viewBox="0 0 698.25 600" version="1.1">
  <path d="M361,600q-131.53,0-263.07,0c-28.21,0-34.67-8-28.11-34.8q25.09-102.48,50.52-204.87c7.62-30.6,18.56-38.8,50-38.8,123.54,0,247.07-.14,370.61.29,11.51,0,19.17-3.15,26.77-11.89,51.73-59.42,40.38-47.4,106.36-48.56,18.75-.33,37.51-.4,56.25,0,20.35.45,27.52,10.48,21.69,30q-41.74,139.81-83.72,279.54c-6.22,20.71-19.29,29-45.91,29.07Q491.71,600.12,361,600Z" transform="translate(-55.76 0)"/>
  <path d="M556.13,294.74H535.47c-.29-5.58-.81-10.83-.81-16.08q-.08-85.28,0-170.56c0-20.83-.47-41.67.19-62.48.46-14.54-3.66-23.84-20-23.53-13.15.25-26.31.82-39.46.65-35.17-.47-70.34-1.92-105.51-1.81-62.21.2-124.42,1.26-186.62,2-14.71.17-16.34,10.06-16.32,21.54q.11,91.9,0,183.81c0,21.51,0,43,0,65.8H144.82c0-4.59,0-9.81,0-15q0-117.57,0-235.14C144.9,12.51,157.49-.1,189,0Q321.31.44,453.59,1.13c21.48.09,43-.28,64.45.14,22.44.44,37.68,13.54,37.84,35.31C556.5,122,556.13,207.46,556.13,294.74Z" transform="translate(-55.76 0)"/>
  <path d="M118.4,172.14c0,45.55,0,89-.05,132.5,0,2.12-.09,4.74-1.26,6.27-31.32,40.85-30.74,91.89-44,138.45-6.27,22-9.82,44.78-17.25,67.21q0-9.88,0-19.77,0-140.71-.08-281.42c0-35.65,7.75-43.33,43.66-43.24C104.91,172.15,110.39,172.14,118.4,172.14Z" transform="translate(-55.76 0)"/>
  <path d="M349.86,275.39c-40.8,0-81.61.07-122.41-.07-7.93,0-18.34,2.11-18.47-10.41-.13-13,10.5-12.06,19.25-12.06,82.16-.08,164.32-.27,246.47.47,6.27.06,17.22,6.35,17.82,10.82,1.77,13.37-10.14,11.17-18.59,11.2C432.57,275.47,391.21,275.4,349.86,275.39Z" transform="translate(-55.76 0)"/>
  <path d="M349.55,212.39q-61.19,0-122.38,0c-8.23,0-18.19,1.22-18.17-11,0-11.62,9.42-11.69,18-11.69H475.06c8.49,0,17.95-.33,18.09,11.44.15,12.15-9.55,11.24-17.91,11.24Z" transform="translate(-55.76 0)"/>
  <path d="M350.67,149.35H225.28c-7.89,0-17.85.24-15.75-10.73.91-4.77,10.32-11.22,15.93-11.27,46.79-.43,93.58.72,140.38.86,36.69.11,73.4-1,110.07-.31,5.53.11,14.7,6.49,15.63,11.25,2.32,11.86-7.86,9.9-15.56,9.88-41.77-.11-83.53-.05-125.3-.05Z" transform="translate(-55.76 0)"/>
  <path d="M583.86,255V174.9c59.54-8.8,81.58-2.46,71.68,60.08C631.32,234.7,605.94,231.85,583.86,255Z" transform="translate(-55.76 0)"/>
</svg>
