<svg xmlns="http://www.w3.org/2000/svg" viewBox="0 0 665.41 600.05"><title>archives</title><path d="M690.26,284.89c-33.47,12.08-49.18,3.82-57.7-25.13-13.81-46.91-31.49-92.67-45.77-139.45-6.4-21-17-28.94-39.31-28.7q-145.08,1.56-290.18.06c-22-.21-33.09,7.15-39.52,28.49C203.64,167,185.83,212.71,172,259.62c-8.49,28.88-24,37.32-55.7,25.92C121,267.47,125.08,249,130.58,231c20.36-66.67,42-132.95,61.38-199.9C198.53,8.38,209.64-.19,233.36,0,346,.94,458.66-.22,571.29,1.32c12.68.17,33.21,10,36.52,19.88C636.89,108,662.88,195.82,690.26,284.89Z" transform="translate(-69.59 0)"/><path d="M597.66,288.14H206.78c-2.9-33.31,9-46,41.6-45.47q154,2.4,308,0C589.07,242.17,600.7,254.92,597.66,288.14Z" transform="translate(-69.59 0)"/><path d="M579,222H225.32c-4-34,9.22-46,41.31-45.47q135.71,2.14,271.48,0C570.2,176,583.43,187.83,579,222Z" transform="translate(-69.59 0)"/><path d="M562,155.71H243c-3.12-33.49,9.12-46.2,41.68-45.48C363.1,112,441.61,112.1,520,110.1,553.2,109.26,563.64,123.38,562,155.71Z" transform="translate(-69.59 0)"/><path d="M683.9,309.65c-93.16-.37-186.33-.11-279.5-.09s-186.33-.12-279.5.08c-49,.1-59.16,10.87-54.18,59.07C77.26,432,85.31,495.2,91.8,558.53,94.69,586.7,108.35,600,137,600q264.79-.45,529.58.08c28.79.08,42.9-13,45.94-40.81,7.06-64.5,15-128.91,21.57-193.46C738.53,322.21,727.2,309.82,683.9,309.65Zm-121.42,169h-.56c-1.47,15.57-14.16,27.89-30.11,27.89-.83,0-1.54-.41-2.35-.48a10,10,0,0,1-2.87.72q-124.84,3-249.78-.12a12.07,12.07,0,0,1-5.39-2.11c-.3-.19-.57-.33-.88-.54a39.86,39.86,0,0,1-6.07-5.1h0a57.24,57.24,0,0,1-5.24-6.14h0a45.72,45.72,0,0,1-2.6-3.91,8.83,8.83,0,0,1-.81-1.35h0a21.62,21.62,0,0,1-1.74-4.09c0-.1-.09-.21-.12-.3a6.51,6.51,0,0,1-.21-3.34c.09-.3.25-.58.34-.88,0-.08,0-.16,0-.24h-.56V439.85h.35a30.36,30.36,0,0,1,60.65,0h.35v26.07H501c.1-.77.1-1.47.17-2.24V439.85h.35a30.36,30.36,0,0,1,60.65,0h.35Z" transform="translate(-69.59 0)"/></svg>