<svg xmlns="http://www.w3.org/2000/svg" viewBox="0 0 539.01 600" version="1.1">
  <path d="M443.76,0c3.46,1.83,6.92,3.64,10.37,5.48,8.6,4.58,11.33,12.46,6.56,20.92q-17,30.18-34.58,60.06a13.83,13.83,0,0,1-18.4,5.7c-6.77-3.31-10-10.54-7-17.78,9.09-21.89,18.26-43.76,28.18-65.28C430.67,5.18,436.19,3,440,0Z" transform="translate(-124.2)"/>
  <path d="M299.73,85.48c20.2.82,41.8,8.61,62.5,19.17,46,23.48,84.83,56.37,120.4,93.3,31.92,33.14,60.32,69,80,110.92,8.89,18.93,15.76,38.56,15.58,59.82-.33,38.16-27.91,54-60.13,50.33-33.36-3.84-62.33-18.92-89.61-37.17A529.7,529.7,0,0,1,282.25,235.79c-16.66-24.79-30.91-51-35.87-80.94a98.41,98.41,0,0,1-.18-32.67C250.34,98.77,269.52,85.52,299.73,85.48Zm229,270c-.85-16.55-6.75-31.15-14.34-45.11C489.31,264.19,454.86,225.78,415,192c-22.76-19.28-46.77-36.8-74.31-48.84-12.27-5.36-24.91-9.7-38.56-7.12-2.68.51-6.17,3-7,5.42-1.32,3.73-1.14,8.17-.83,12.26,1.24,16.58,8.32,31.19,16.19,45.41,15.51,28,35.25,53,57.16,76.21,28.85,30.6,60.74,57.5,97.46,78.3,14.16,8,29,14.42,45.43,16.28C523.5,371.41,528.67,367.4,528.77,355.45Z" transform="translate(-124.2)"/>
  <path d="M233.45,194.62c8.82,16.53,18.95,35.27,28.75,54.19,1.22,2.35,1.31,5.7.88,8.42-4.19,27-12.55,52.46-27,75.81a13.17,13.17,0,0,0-1.46,9.15c6.68,26.79,23.19,47.1,43.78,64.47,12.52,10.56,26.37,19,42.53,22.77,2.71.64,6.43.42,8.68-1A194.48,194.48,0,0,1,405.22,401c4.09-.6,9,.64,12.8,2.55,16.82,8.5,33.37,17.55,48.49,25.6-8.6.47-19.27,1-29.93,1.64-42.16,2.68-78.46,19.28-109.56,47.29a599.53,599.53,0,0,0-44.1,43.36c-16,17.75-35.48,22-56.68,15.16-51.32-16.55-85.66-50.71-100-103.27-5.27-19.39-.63-36.49,14.63-51.09,17.74-17,35.09-34.52,51-53.23,23.75-28,37-60.95,39.77-97.77C232.63,218.09,233,204.86,233.45,194.62Z" transform="translate(-124.2)"/>
  <path d="M299.28,537.75c5.07-4.75,10.73-9.89,16.22-15.23,6.56-6.39,13.32-12.62,19.36-19.49,10.34-11.75,22.61-12.7,36.27-7.64,11.88,4.4,23.81,8.68,35.54,13.42a30.16,30.16,0,0,0,22.41.29c2.54-.91,5.21-1.46,7.72-2.44,13.88-5.4,26.08-1.51,37.43,6.77,9,6.57,11,15.51,4.09,24.31-8.19,10.47-17.44,20.11-26.29,30-5.26,5.91-10.63,11.71-16,17.54-14,15.22-26.44,18.84-45.12,9.72-16-7.8-30.81-18-45.91-27.49C330.13,558.19,315.52,548.36,299.28,537.75Z" transform="translate(-124.2)"/>
  <path d="M570.39,250.33c-.11-6.25,2.55-10.23,7.21-12.92,19.81-11.44,39.59-22.94,59.52-34.18,8.8-5,16.79-2.29,21.27,6.72A52.69,52.69,0,0,1,663,221.46c1.15,5.1-2.88,11.43-8.59,13.91-21.35,9.27-42.7,18.56-64.22,27.41C579.82,267,570.27,260.36,570.39,250.33Z" transform="translate(-124.2)"/>
  <path d="M517.07,162.32c-6.23-1.06-10.89-3.16-13.2-8.51-2.47-5.73-2.09-11.33,2.3-16.27q19.31-21.72,38.56-43.48c2.35-2.65,4.65-5.35,7.07-7.93,5.76-6.12,12.5-7.1,19-2.85,10,6.52,14.4,15.64,10.81,23.29a19.06,19.06,0,0,1-4.55,5.84c-16.61,14.86-33.23,29.71-50.06,44.32C524.22,159.17,520.42,160.48,517.07,162.32Z" transform="translate(-124.2)"/>
  <path d="M429.55,301.24a551.1,551.1,0,0,1-66.68-66.58c13.09-14,37.09-11.81,55.88,4.61C439.83,257.69,444.56,282.81,429.55,301.24Z" transform="translate(-124.2)"/>
</svg>
