<svg xmlns="http://www.w3.org/2000/svg" viewBox="0 0 598.1 598.68" version="1.1">
  <path d="M450.85,80.88h62.88c0,17.32-.09,34.14,0,51,.2,28.92,21.14,51.43,47.4,50.18,23.55-1.12,52.17-23.43,46.67-52.31-2.91-15.29-.52-31.59-.52-47.11,38-9,81,23.43,87.66,51.84,3.83,16.32,6.77,33.27,6.87,50,.61,107.54-.92,215.11.9,322.63.77,45.46-32.45,93.26-93.06,93-136.83-.65-273.66-.11-410.48-.26-58.87-.06-94.48-35.8-94.49-94.27q0-169,.05-337.95c.08-51.42,41.67-89.89,95.44-86.48,0,17.12-.17,34.49,0,51.86.33,27.8,21.11,49.48,46.87,49.18s46-21.8,46.26-49.73c.17-16.87,0-33.74,0-51.32,5-.36,8.2-.78,11.36-.79,16.39-.07,32.79,0,51.58,0,0,16.81-.11,32.5,0,48.19.26,31.4,20.51,54,47.92,53.58,27.13-.38,46.28-22.19,46.55-53.18C451,113.43,450.85,98.06,450.85,80.88ZM130.56,233.72c0,8.55,0,14.48,0,20.41q0,124.44,0,248.89,0,71.76,71.66,71.8,199.44,0,398.88,0c53,0,75.8-23,76.17-76.28.55-80.12,1.52-160.25,2.11-240.37.06-7.52-1.29-15-2.16-24.48Z" transform="translate(-104.65 -1.32)"/>
  <path d="M429.59,81.67c0,17,.47,34-.13,51-.63,18.09-11.77,29.4-27,28.71-14.53-.66-24.39-11.74-24.59-29.3q-.57-51,0-101.93c.2-17,10.76-28.39,25.24-28.78,14.69-.39,26,11.76,26.47,29.38.44,17,.09,34,.09,51Z" transform="translate(-104.65 -1.32)"/>
  <path d="M272.95,82c0,17,.2,34.05,0,51.07-.23,16-11.48,28-25.93,28.3-13.5.27-26.1-11.11-26.39-26.26q-1-53.52-.05-107.07c.28-15.22,12.6-26.6,26.11-26.64,14.64,0,25.93,11.66,26.22,27.88C273.18,46.83,272.94,64.41,272.95,82Z" transform="translate(-104.65 -1.32)"/>
  <path d="M586.36,79.89c0,16.45.43,32.91-.12,49.34-.66,19.66-11,32.07-25.83,32.19-15.67.12-26.68-13.14-26.77-32.86q-.2-47.7.07-95.4c.11-18.7,10.74-31.42,26.07-31.82,16.07-.42,26.48,12.26,26.57,32.5C586.41,49.19,586.36,64.54,586.36,79.89Z" transform="translate(-104.65 -1.32)"/>
  <path d="M566.12,301.22V346h-91.3L470,374.14c14.89-2,28.35-5.82,41.62-5.25,33.72,1.43,58.74,22.22,64.44,51.07,6.8,34.41-9.63,71.51-40.26,84.25-31.6,13.15-64.39,12.74-95.79-1.89-18.81-8.76-29-23.28-35.53-47.44L461,448.54c2.39,5.67,3.78,10.4,6.21,14.5,7.5,12.62,19.13,16.31,32.61,12.36,16-4.69,24.15-32.1,16.4-53-5.56-15-25.9-24.76-39.45-14.21-18.28,14.23-35.46,8.46-53.8,5.59-3.19-.5-6.43-.76-11.74-1.37l18-111.17Z" transform="translate(-104.65 -1.32)"/>
  <path d="M223.2,402c0-16.46-.55-29.5.36-42.45.25-3.5,4.27-8.43,7.7-9.75,25.22-9.71,46.92-23.35,60.36-47.91,1.46-2.67,5.69-5.24,8.74-5.37,13.54-.58,27.13-.25,41.28-.25V507.82h-58V373Z" transform="translate(-104.65 -1.32)"/>
</svg>
