<svg xmlns="http://www.w3.org/2000/svg" viewBox="0 0 799.05 598.4"><title>classifieds</title><path d="M564.77.56C573.87.25,582.25,3.08,590.64,6q64,22.41,128,44.76c14.92,5.24,30,10.09,44.69,16,21.56,8.62,33.16,25.17,36.27,48.07,1.24,9.2-.44,17.92-3.4,26.46q-25.61,74.13-51.4,148.18c-3.45,9.93-6.78,19.9-10.29,29.8C731,329,724.1,336.17,716.63,343c-9,8.2-19.86,13-30.57,18.23q-31.63,15.35-63.32,30.56-68.28,33-136.57,66-55,26.53-109.88,53l-134.51,65c-11.3,5.45-22.49,11.15-33.94,16.22-26.14,11.53-50.84,8.64-73.75-8.4-10-7.43-16.61-17.5-21.88-28.71-9.37-19.95-19.2-39.69-28.8-59.55-25-51.79-50.32-103.46-74.89-155.46-13-27.45-9-53.4,10-77.08,7.56-9.37,17.73-15,28.25-20.08q32.3-15.69,64.68-31.26l141.33-68.34q56.61-27.38,113.28-54.75,69.29-33.49,138.59-67c9.47-4.58,18.85-9.37,28.48-13.56A83.49,83.49,0,0,1,564.77.56Zm56.79,303.06a70.33,70.33,0,0,0-7-30.55q-19.09-39.94-38.42-79.77c-10.29-21.34-20.79-42.59-30.83-64-7.32-15.56-17.87-28-33.32-35.67-22.46-11.1-44.77-10-67.18,1-36.47,18-73.22,35.42-109.82,53.1Q264.24,181.84,193.59,216c-29.54,14.27-59,28.67-88.66,42.75-36,17.12-51.33,59.08-34.36,94.65,9.49,19.9,19.13,39.73,28.73,59.56,13.87,28.62,27.85,57.18,41.59,85.85A76.84,76.84,0,0,0,159.52,524c20.53,18,51.61,22.07,76.14,10.17,31.13-15.11,62.31-30,93.46-45q71.18-34.37,142.35-68.81c36.38-17.58,72.87-35,109.14-52.75C607.1,354.56,620.15,332.73,621.55,303.62Zm83.6-151.82c-.1-16.88-13.23-29.39-30.53-29.56-14.86-.16-30.22,11.84-30.19,30.22.08,17.75,13.56,29.84,30.25,30A30.12,30.12,0,0,0,705.15,151.8Z" transform="translate(-0.95 -0.54)" fill-rule="evenodd"/><path d="M176.4,372.18c9.64-.51,17.46-3.8,25.68-5.12,7.1-1.14,14.14-2.09,21.47-1.47,13.07,1.1,21.71,11.72,24.09,23.38,2.3,11.25-1.78,20.7-9,29-10.33,11.86-24,18.37-38.58,23.21-7.59,2.52-15.52,3.46-23.42,4.47a3.15,3.15,0,0,1-3.82-2.13c-2.76-6.11-5.72-12.15-8.53-18.25-1.5-3.26-1-4.09,2.72-3.74,6.16.57,12.26,1.39,18.49.83,11.3-1,21.85-4.07,31.13-10.84a14,14,0,0,0,5.85-8.62c1.17-5.88-5.25-10.75-12.38-9.32-8.17,1.64-16.25,3.83-24.42,5.39-9.94,1.91-20,2.6-29.17-2.83-13.66-8.05-18.32-25.82-10.75-39.78,5.12-9.45,12.73-16.28,21.91-21.55,12.48-7.15,26-11.11,40.19-13,2.74-.37,4.39.31,5.55,3.08,2.25,5.36,5,10.52,7.45,15.79.5,1.07,1.64,2.22.55,3.48-.95,1.07-2.17.77-3.5.6-14.29-1.9-28-.58-40.54,7.43a31.39,31.39,0,0,0-6.32,5.41c-2.65,2.88-4.13,6.17-2.27,10C170.54,371.25,173.67,372.56,176.4,372.18Z" transform="translate(-0.95 -0.54)" fill-rule="evenodd"/><path d="M288.66,375.9c.73,5.8,1.13,11,2.14,16.06.71,3.71-.14,5.77-3.8,7.28-5.94,2.46-11.72,5.42-17.5,8.28-2.19,1.07-3.47,1.63-3.75-1.81-.76-9.95-1.86-19.87-2.82-29.82q-2.19-22.44-4.31-44.91c-1.07-11.32-2.11-22.66-3.22-34-.2-1.93.78-2.67,2.29-3.37,8.14-3.8,16.28-7.6,24.37-11.56,1.94-.95,3-.23,4.23,1,4.81,4.69,9.7,9.29,14.52,14q23.4,22.81,46.78,45.68c5.45,5.29,10.87,10.6,16.44,15.78,2,1.92,1.75,2.84-.68,4-6.66,3.1-13.29,6.27-19.81,9.61-2.28,1.16-3.68.6-5.27-1.09-3.84-4.05-7.88-7.9-11.71-12-1.57-1.66-2.93-1.87-5-.87q-15.32,7.55-30.78,14.86C289.14,373.84,288.38,374.77,288.66,375.9Zm-6.72-62c0,1.57-.06,2.42,0,3.25,1.26,11.31,2.56,22.61,3.79,33.92.27,2.55,1.58,1.69,2.86,1.07,6.27-3,12.56-6,18.84-9,1.76-.82,2.47-1.57.75-3.24C299.63,331.48,291.11,323,281.94,313.93Z" transform="translate(-0.95 -0.54)" fill-rule="evenodd"/><path d="M466.35,312.71c-1.89,0-2-1.66-2.58-2.8q-10.69-22.26-21.32-44.55c-7.36-15.31-14.67-30.62-22.14-45.86-1.12-2.32-1-3.31,1.48-4.49q31.95-15.09,63.75-30.51c2.91-1.4,4.11-1,5.29,1.91a127.36,127.36,0,0,0,5.57,11.65c1.33,2.53,1.13,3.87-1.72,5.2-12.86,6-25.59,12.29-38.42,18.28-2.86,1.33-3.5,2.55-1.85,5.33a87.9,87.9,0,0,1,5.06,10.22c1,2.32,2.06,2.57,4.3,1.47,11.71-5.74,23.56-11.24,35.26-17,2.72-1.34,4.21-1.28,5.47,1.78,1.71,4.09,3.75,8,5.81,12,1.2,2.31.84,3.58-1.59,4.73-11.94,5.63-23.74,11.46-35.67,17-2.49,1.17-3.1,2.06-1.74,4.69,3,5.85,5.72,11.86,8.38,17.89,1,2.4,2.11,2.87,4.54,1.68,12.95-6.39,26-12.54,38.94-18.95,2.62-1.3,3.84-1.11,5,1.7,1.9,4.55,4.19,8.94,6.38,13.37.74,1.47.89,2.43-.9,3.29q-33.14,15.74-66.19,31.58A9.92,9.92,0,0,1,466.35,312.71Z" transform="translate(-0.95 -0.54)" fill-rule="evenodd"/><path d="M449.95,319.91c-.1,1.24-1.13,1.4-1.87,1.75q-32.68,15.74-65.37,31.47c-2.16,1.05-2.87.06-3.69-1.64q-13.87-29.15-27.81-58.27C346.08,282.47,341,271.7,335.74,261c-1.4-2.87-1.26-4.32,2-5.66,5.83-2.44,11.56-5.19,17.13-8.19,3.13-1.71,4.56-1.41,6.15,2,11.07,23.48,22.4,46.82,33.47,70.3,1.55,3.31,2.73,3.82,6,2.15,12.55-6.3,25.33-12.16,37.92-18.39,2.51-1.24,3.42-.72,4.43,1.64,1.9,4.42,4.11,8.7,6.19,13C449.35,318.6,449.67,319.3,449.95,319.91Z" transform="translate(-0.95 -0.54)" fill-rule="evenodd"/></svg>