<svg xmlns="http://www.w3.org/2000/svg" viewBox="0 0 799.05 598.4" version="1.1">
  <path d="M564.77.56C573.87.25,582.25,3.08,590.64,6q64,22.41,128,44.76c14.92,5.24,30,10.09,44.69,16,21.56,8.62,33.16,25.17,36.27,48.07,1.24,9.2-.44,17.92-3.4,26.46q-25.61,74.13-51.4,148.18c-3.45,9.93-6.78,19.9-10.29,29.8C731,329,724.1,336.17,716.63,343c-9,8.2-19.86,13-30.57,18.23q-31.63,15.35-63.32,30.56-68.28,33-136.57,66-55,26.53-109.88,53l-134.51,65c-11.3,5.45-22.49,11.15-33.94,16.22-26.14,11.53-50.84,8.64-73.75-8.4-10-7.43-16.61-17.5-21.88-28.71-9.37-19.95-19.2-39.69-28.8-59.55-25-51.79-50.32-103.46-74.89-155.46-13-27.45-9-53.4,10-77.08,7.56-9.37,17.73-15,28.25-20.08q32.3-15.69,64.68-31.26l141.33-68.34q56.61-27.38,113.28-54.75,69.29-33.49,138.59-67c9.47-4.58,18.85-9.37,28.48-13.56A83.49,83.49,0,0,1,564.77.56Zm56.79,303.06a70.33,70.33,0,0,0-7-30.55q-19.09-39.94-38.42-79.77c-10.29-21.34-20.79-42.59-30.83-64-7.32-15.56-17.87-28-33.32-35.67-22.46-11.1-44.77-10-67.18,1-36.47,18-73.22,35.42-109.82,53.1Q264.24,181.84,193.59,216c-29.54,14.27-59,28.67-88.66,42.75-36,17.12-51.33,59.08-34.36,94.65,9.49,19.9,19.13,39.73,28.73,59.56,13.87,28.62,27.85,57.18,41.59,85.85A76.84,76.84,0,0,0,159.52,524c20.53,18,51.61,22.07,76.14,10.17,31.13-15.11,62.31-30,93.46-45q71.18-34.37,142.35-68.81c36.38-17.58,72.87-35,109.14-52.75C607.1,354.56,620.15,332.73,621.55,303.62Zm83.6-151.82c-.1-16.88-13.23-29.39-30.53-29.56-14.86-.16-30.22,11.84-30.19,30.22.08,17.75,13.56,29.84,30.25,30A30.12,30.12,0,0,0,705.15,151.8Z" transform="translate(-0.95 -0.54)" fill-rule="evenodd"/>
  <text transform="translate(160.41 460.32) rotate(-25.87)" font-size="156.1" font-family="Arial-Black, Arial">SALE</text>
</svg>
