<svg xmlns="http://www.w3.org/2000/svg" viewBox="0 0 578.24 602.95" version="1.1">
  <path d="M116.79,322.44q0-106.42,0-212.84c.06-39.14,27.24-64.85,66.11-63.34,10.33.4,15.48,4.87,15.47,15.21,0,4.59,0,9.18,0,13.77-.1,17.65-1.93,19.88-20,20.54-8.4.31-12.21,4.28-13,12a96.76,96.76,0,0,0-.22,10q0,204.08,0,408.16c0,21.83,1.44,23.23,23.54,23.23q140.23,0,280.45,0c19,0,21.06-2,21.06-20.5q0-206.58,0-413.16c0-17.38-1.13-18.81-17.82-19.47-10.37-.41-15.35-5.15-14.95-15.57.15-3.75,0-7.51,0-11.27,0-21.08,3-23.95,23.84-22.73,34.5,2,58,27.67,58.13,64.19.2,71.78.06,143.56.06,215.35,0,68-.77,136.06.29,204.07.61,38.85-25.67,68.63-67.25,68-97.21-1.55-194.47-.47-291.71-.5-40.12,0-64-23.65-64-63.51Q116.71,428.23,116.79,322.44Z" transform="translate(-116.76 0)"/>
  <path d="M578.1,242.43q0-95.72,0-191.43c0-33.92,16.94-50.94,50.49-51q8.13,0,16.27,0c32.21.16,50,17.93,50,50.57.13,53.8,0,107.6,0,161.4,0,71.73.24,143.47-.2,215.2a106.61,106.61,0,0,1-5.17,32.91c-15.15,44.95-31.22,89.58-47.16,134.26-1.13,3.18-4,5.74-6.06,8.59-2.2-2.66-5.37-5-6.45-8q-25.4-71.79-50.17-143.79c-1.57-4.57-1.56-9.83-1.56-14.77Q578,339.4,578.1,242.43Zm97.42,48.07q0-49.38,0-98.76c0-4.17.82-8.58-.29-12.43-1-3.42-4.13-6.22-6.32-9.29-2.62,3.13-5.58,6-7.7,9.47-.94,1.51-.21,4.07-.21,6.15q0,103.76.08,207.52c0,3.72-.4,7.8,1,11a10.3,10.3,0,0,0,7.1,5.24c1.74.22,4.87-3,5.71-5.31,1.09-3,.64-6.56.64-9.89Q675.54,342.38,675.52,290.5Zm-32.26-.11q0-25,0-50.09c0-20.45.25-40.92-.34-61.35-.09-3.06-4.22-6-6.48-9a100.45,100.45,0,0,0-6.76,8.88c-.75,1.22-.2,3.27-.2,4.94q0,106.44.08,212.89c0,5.45-1.64,13.47,7.27,12.53,2.55-.27,6.09-8,6.15-12.35C643.48,361.35,643.26,325.87,643.25,290.39Zm-32.27.32c0-35.89.21-71.79-.28-107.67-.06-4.36-3.93-8.67-6-13-2.39,4.05-6.83,8.1-6.86,12.17q-.63,107.67,0,215.35c0,4.11,4.32,8.2,6.62,12.3,2.18-4.24,6.18-8.45,6.24-12.72C611.19,361.66,611,326.18,611,290.71Zm-7.86,157c7.23,21,13.61,40.69,20.85,60,2.31,6.17,21.4,6.56,23.7.49,7.44-19.65,14-39.65,21.18-60.51Zm77-370.89H592.85v28.56h87.27Z" transform="translate(-116.76 0)"/>
  <path d="M326.83,241.33c-33.77,0-67.53-.14-101.3.07-9.44.06-17.37-2.16-17.71-12.83-.37-11.54,7.92-14,17.84-14q101.92,0,203.84-.32c9.86,0,18.15,2.25,18.19,13.78,0,11.81-8.6,13.46-18.31,13.41C395.2,241.24,361,241.34,326.83,241.33Z" transform="translate(-116.76 0)"/>
  <path d="M327.94,316.79c-34.57,0-69.14.1-103.71-.05-11.93-.05-20-7.8-15.8-16.18,2.36-4.75,9.71-9.91,14.86-10,69.55-.65,139.11-.46,208.67-.42,9,0,15.83,3.35,15.74,13.54s-7,13.06-16,13c-34.57-.09-69.14,0-103.71,0Z" transform="translate(-116.76 0)"/>
  <path d="M327.26,366c34.64,0,69.29-.37,103.92.41,5.43.12,12.89,4.23,15.62,8.78,4.48,7.46-1.55,16.57-10.78,16.62q-108.3.49-216.6,0c-7.9,0-12.13-5.67-11.66-13.43.51-8.51,6-12.36,14.33-12.36q46.33,0,92.66,0Z" transform="translate(-116.76 0)"/>
  <path d="M328.75,441.59c33.81,0,67.61.09,101.42-.05,9.22,0,17.23,1.44,17.52,12.76s-7.73,13.5-16.91,13.5q-102.67,0-205.34,0c-9.09,0-17.59-1.71-17.64-12.87,0-11.77,8.52-13.51,18.29-13.46C260.31,441.69,294.53,441.58,328.75,441.59Z" transform="translate(-116.76 0)"/>
  <path d="M400.46,71.94c0-10.83-.21-21.67.05-32.49.37-15.17,9.7-25.91,22.66-26.61s24.18,9.31,24.74,24.32c.85,22.87.94,45.82.11,68.68-.59,16.16-11.59,26.28-25,25.45-12.83-.8-22.09-11.62-22.49-26.86C400.23,93.61,400.46,82.77,400.46,71.94Z" transform="translate(-116.76 0)"/>
  <path d="M304.31,72.47c0-12.06-.59-24.15.18-36.16.88-13.78,10.7-23.24,22.83-23.51,12.37-.28,23.8,9.83,24.25,23.67q1.15,35.52,0,71.1c-.42,13.21-11.36,23.22-23.14,23.55-12.58.35-22.94-9.29-24-23.74C303.64,95.79,304.3,84.11,304.31,72.47Z" transform="translate(-116.76 0)"/>
  <path d="M254.89,71.66c0,11.64.34,23.3-.1,34.92-.52,14-10.77,24.42-23.27,24.53s-23.51-10.19-23.92-24q-1-34.89-.06-69.83c.41-14.72,11.62-24.93,24.7-24.38,12.58.53,22.15,10.9,22.58,25.12C255.18,49.2,254.9,60.43,254.89,71.66Z" transform="translate(-116.76 0)"/>
  <path d="M391.43,69.83c0,22.16-4.48,28.45-18.51,25.63-4.36-.88-11.1-5.92-11.19-9.21a140,140,0,0,1,3.55-36.14c.54-2.28,11.61-4.17,16.93-2.78C395.22,50.73,390.2,62.65,391.43,69.83Z" transform="translate(-116.76 0)"/>
  <path d="M264.55,71.18c0-3.32.15-6.65,0-10-.56-10.83,5.3-14.85,15.29-14.86,10.35,0,15.28,4.92,14.86,15.36-.23,5.8-.25,11.63,0,17.43.52,10.51-3.35,16.77-14.77,16.77-11.73,0-15.2-3.76-15.37-17.27C264.52,76.16,264.55,73.67,264.55,71.18Z" transform="translate(-116.76 0)"/>
</svg>
