<svg xmlns="http://www.w3.org/2000/svg" viewBox="0 0 402.06 600.12" version="1.1">
  <path d="M600.88,414.43c-3.07,39.08-6.24,79.26-9.39,119.45-1.5,19-3.39,37.92-4.29,56.92-.51,10.52-3.88,11.12-12.22,6.34Q501.22,555,427.1,513.42c-5.93-3.33-9.25-8.17-12.37-13.84-25.49-46.32-52-92.11-76.57-138.91-44.22-84.18-91-167-136.31-250.52-4.25-7.84-3.17-12.66,2.33-19C248.27,40.3,304.6,12.08,370,.18c7.52-1.37,10.39,2.16,13.49,7.9q64,118.41,128.2,236.65,43.28,80,86.37,160C599.58,407.48,602.39,409.7,600.88,414.43ZM535.4,442.9c-12-10.9-24-18.85-39.73-11-16.78,8.4-12.09,24.94-13.61,40.43-3.17-2.66-4.89-4-6.49-5.46-7.78-7.13-16.48-11.85-27.13-7.71-8.27,3.2-10.27,11-10.92,18.93-.94,11.56,3.46,19.66,14.42,25,17.07,8.39,34.72,16.38,50,27.41,20.44,14.72,38.48,15.52,58.27-.3,6.05-4.82,10.18-8.51,10.7-16.92,1.65-26.69,4.34-53.3,6.67-80,1.12-12.72-7.89-26.41-20.23-29.75-7.67-2.08-13-.18-17.87,7.64C533.37,421.11,538,431.36,535.4,442.9ZM360.06,156.84c-8.59,3.69-18.46,6.55-24.33,13.95-4,5,2.78,10.66,5.42,15.55Q400,295,459.5,403.34c4.1,7.46,7.1,16.73,12.86,21.89,9.66,8.68,13.29-8.21,21.85-8.5a30.88,30.88,0,0,0,5.33-1c4.33-.94,6.25-2.19,3.36-7.3-13.27-23.51-26-47.33-39-71q-47.35-85.71-94.92-171.32C366.89,162.47,366.22,157.11,360.06,156.84Zm201.64,233c-12.27-22.49-23.51-43.32-34.95-64Q479.43,240,432,154.35c-11.83-21.42-11.65-21.08-34.91-12.85-9,3.17-9.7,6.57-5.12,14.55,16.23,28.32,31.79,57,47.55,85.62q40.06,72.64,80,145.35c4.11,7.52,8.17,13.11,17.2,5.84C543.58,387.32,551.89,388.53,561.69,389.82ZM424.8,465.29c4.16-9.91,8.29-17.94,16.83-19.49,13.28-2.41,8.72-8.45,4.77-15.53q-33.58-60.41-66.92-120.93-31.23-56.41-62.68-112.72c-1.81-3.23-1.79-9.91-8.9-7.45-14.93,5.19-21.5,21-14.2,34.48q40,73.89,80,147.75C390.23,401.82,406.82,432.21,424.8,465.29Z" transform="translate(-199.25 0.12)" fill-rule="evenodd"/>
  <path d="M535.4,442.9c2.58-11.54-2-21.79,4.14-31.65,4.89-7.82,10.2-9.72,17.87-7.64,12.33,3.34,21.34,17,20.23,29.75-2.33,26.65-5,53.27-6.67,80-.53,8.41-4.65,12.09-10.7,16.92-19.8,15.83-37.83,15-58.27.3-15.33-11-33-19-50-27.41-11-5.38-15.36-13.47-14.42-25,.65-8,2.65-15.72,10.92-18.93,10.65-4.14,19.35.58,27.13,7.71,1.6,1.46,3.33,2.8,6.49,5.46,1.52-15.49-3.17-32,13.61-40.43C511.37,424.05,523.36,432,535.4,442.9Z" transform="translate(-199.25 0.12)" fill="none" fill-rule="evenodd"/>
  <path d="M360.06,156.84c6.16.26,6.84,5.63,8.87,9.3q47.59,85.59,94.92,171.32c13.05,23.63,25.78,47.45,39,71,2.89,5.1,1,6.35-3.36,7.3a30.88,30.88,0,0,1-5.33,1c-8.56.29-12.19,17.18-21.85,8.5-5.76-5.16-8.76-14.43-12.86-21.89q-59.58-108.3-118.36-217c-2.64-4.89-9.39-10.54-5.42-15.55C341.6,163.39,351.46,160.54,360.06,156.84Z" transform="translate(-199.25 0.12)" fill="none" fill-rule="evenodd"/>
  <path d="M561.69,389.82c-9.8-1.29-18.11-2.5-25,3-9,7.28-13.08,1.68-17.2-5.84q-39.87-72.75-80-145.35c-15.76-28.59-31.32-57.3-47.55-85.62-4.59-8-3.86-11.38,5.12-14.55,23.26-8.22,23.08-8.56,34.91,12.85q47.35,85.73,94.76,171.42C538.18,346.5,549.42,367.33,561.69,389.82Z" transform="translate(-199.25 0.12)" fill="none" fill-rule="evenodd"/>
  <path d="M424.8,465.29c-18-33.08-34.57-63.46-51.08-93.89q-40-73.85-80-147.75c-7.3-13.48-.73-29.29,14.2-34.48,7.11-2.46,7.09,4.22,8.9,7.45q31.6,56.22,62.68,112.72Q413,369.79,446.4,430.26c4,7.09,8.51,13.12-4.77,15.53C433.09,447.35,429,455.38,424.8,465.29Z" transform="translate(-199.25 0.12)" fill="none" fill-rule="evenodd"/>
</svg>
