<svg xmlns="http://www.w3.org/2000/svg" viewBox="0 0 603.36 599.53" version="1.1">
  <path d="M629.14,205.08V59.53c20.61,0,41.31-1.32,61.63.89,5.39.59,13.44,11.89,13.7,18.52,1.37,35.09.68,70.26.64,105.41,0,12.35-6.08,20.13-18.56,20.57C668,205.56,649.41,205.08,629.14,205.08Z" transform="translate(-102 -0.47)"/>
  <path d="M629.67,227.71c19.26,0,37.27-.14,55.28,0,13.28.14,20.19,7,20.18,20.45,0,35.09,0,70.18,0,105.27,0,11.49-5.58,19.36-17.31,19.82-19,.75-38.11.2-58.12.2Z" transform="translate(-102 -0.47)"/>
  <path d="M629.61,396.46c20.08,0,38.83-1.52,57.1.8,6.71.85,17.26,10.55,17.54,16.59,1.66,36.64,1.09,73.4.72,110.11-.11,10.59-6,17.74-17.3,18-19,.37-38.1.1-58.05.1Z" transform="translate(-102 -0.47)"/>
  <rect y="60.53" width="130" height="38" rx="12" ry="12"/>
  <rect y="170.28" width="130" height="38" rx="12" ry="12"/>
  <rect y="280.03" width="130" height="38" rx="12" ry="12"/>
  <rect y="389.78" width="130" height="38" rx="12" ry="12"/>
  <rect y="499.53" width="130" height="38" rx="12" ry="12"/>
  <path d="M559.5,1c-122.56,0-245.13.8-367.68-.5C158.89.12,139.89,14.68,143.9,50h71.52a33.79,33.79,0,0,1,5.49-.46c18.18,0,32.92,14.43,32.92,32.23S239.1,114,220.92,114a33.79,33.79,0,0,1-5.49-.46H145.14c.2,14.5.73,26.83-.36,39a27.45,27.45,0,0,0,.12,6.7h70.52a33.79,33.79,0,0,1,5.49-.46c18.18,0,32.92,14.43,32.92,32.23s-14.74,32.23-32.92,32.23a33.79,33.79,0,0,1-5.49-.46H145.17v45.7h70.25a33.79,33.79,0,0,1,5.49-.46c18.18,0,32.92,14.43,32.92,32.23S239.1,332.5,220.92,332.5a33.79,33.79,0,0,1-5.49-.46H144.8v45.7h70.62a33.79,33.79,0,0,1,5.49-.46c18.18,0,32.92,14.43,32.92,32.23s-14.74,32.23-32.92,32.23a33.79,33.79,0,0,1-5.49-.46h-71V487h71a33.79,33.79,0,0,1,5.49-.46c18.18,0,32.92,14.43,32.92,32.23S239.1,551,220.92,551a33.79,33.79,0,0,1-5.49-.46h-71.5c-3.51,34.51,13.1,49.76,47,49.45,123.65-1.14,247.32-.38,371-.47,32.84,0,44.24-11.77,44.24-44.82q0-253.92,0-507.84C606.16,12,595,1,559.5,1ZM422.56,195.8c4.66-15.68,10-31.23,16-46.44,8.91-22.48,12.74-24,41.63-17.14L445.33,231.7C420.21,224.15,416.09,217.58,422.56,195.8ZM289.42,407.38c10.82-13.7,22.21-27,34.18-39.72,15.39-16.34,23.8-15.88,42.31,2l-68.16,78.54C276.69,430.56,275.52,425,289.42,407.38ZM531,192.43c-6.88,115-59.2,204.6-153.73,269.59-23.49,16.15-43,14.29-67.61-3.57,11.86-12.72,24-25,35.32-38.07,11.1-12.81,21.34-26.38,32.77-40.62,12.07,7.76,21.49,2.46,28.07-8.63,20.6-34.77,41.07-69.62,60.9-104.83,6.08-10.79,8.3-22.48-6-28.21l34.53-98.75C520.74,150.3,532.52,166.48,531,192.43Z" transform="translate(-102 -0.47)"/>
</svg>
