<svg id="c6b811df-e5c1-41dd-9a87-96f20f34d810" data-name="Layer 1" xmlns="http://www.w3.org/2000/svg" viewBox="0 0 484.02 600.24"><title>DigiPubs</title><path d="M237.75,300.79c0-31.19.46-62.38-.17-93.56-.4-19.8,8.36-33.68,24.94-42.74,39-21.3,78.67-21.67,117.39,0,10.11,5.65,16,5.29,26-.23,37.07-20.61,75.43-21.08,113.4-1.85,19,9.62,29.83,24.5,29.62,47.2-.55,61.61,0,123.23-.31,184.84-.13,24.82-8,29.3-28.41,15.34-37.82-25.87-75.13-26-112.11.45-11,7.85-19.34,8-30.43,0-37.86-27.09-75.78-26.09-114,.71-18.1,12.69-25.47,8.26-25.83-14.31-.5-31.94-.13-63.89-.13-95.84ZM405.51,361.4c40.67-17.14,78.19-16.48,117.08-.22,0-49.77-1.12-96.76.5-143.67.74-21.57-8.31-32.61-27.07-38.42-24.73-7.67-49.77-8.5-72.7,4.22-7.89,4.38-16.77,15.44-17,23.7C404.72,256.95,405.51,307,405.51,361.4Zm-142.7,1c40.48-19.85,78.57-15.91,117.67-1.86,0-49.53-1.11-95.74.48-141.87.77-22.39-8.5-34.26-28.39-40-24.78-7.2-50-8.18-72.49,5.28-8.07,4.82-16.21,17-16.51,26.09C262,259.15,262.81,308.38,262.81,362.4Z" transform="translate(-150.98 -0.05)"/><path d="M560.22.21Q393.77,0,227.33,0C173,0,151.23,21.38,151.12,75.82c-.16,74.48,0,149,0,223.44,0,76.75-.28,153.51.1,230.26.24,47.38,23.23,70.24,69.71,70.34q168.69.35,337.37.42c53.87,0,76.6-22.22,76.65-75.68q.2-224.57,0-449.15C634.89,23.11,612.17.27,560.22.21ZM401.41,579.93a21,21,0,1,1,21-21A21,21,0,0,1,401.41,579.93Zm185.14-60.41H198.37v-471H586.55Z" transform="translate(-150.98 -0.05)"/></svg>