<svg xmlns="http://www.w3.org/2000/svg" viewBox="0 0 483.6 599.95" version="1.1">
  <path d="M547.18,187.27l1.31,22.63H240.69V187.27Z" transform="translate(-152 -0.05)"/>
  <path d="M548.45,236.83l-1.18,23.48H240.7V236.83Z" transform="translate(-152 -0.05)"/>
  <path d="M240.65,379.15V355.74H547.1v23.42Z" transform="translate(-152 -0.05)"/>
  <path d="M548.43,405.47l-1.05,23.19H240.79V405.47Z" transform="translate(-152 -0.05)"/>
  <path d="M547,456.06v21H240.95l-2.05-21Z" transform="translate(-152 -0.05)"/>
  <path d="M430.44,287.37l-1,22.12H240.85l-2-22.12Z" transform="translate(-152 -0.05)"/>
  <path d="M563.52.19Q393.71-.08,223.9.14C175.29.2,152.11,24,152.07,73.41q-.09,114,0,227.93c0,76.74-.16,153.48.06,230.21.13,43.26,24.87,68.26,67.55,68.32q172.09.22,344.18,0c48.36-.08,71.66-24,71.69-73.14q.14-226.79,0-453.57C635.52,23.32,612.88.26,563.52.19ZM393.8,579.61a21,21,0,1,1,21-21A21,21,0,0,1,393.8,579.61ZM588.44,519H198.71V48.52H588.44Z" transform="translate(-152 -0.05)"/>
  <text transform="translate(84.5 165.62)" font-size="126.97" font-family="Impact, Impact" letter-spacing="0.06em">NEWS</text>
</svg>
