<svg id="8fdb1a6e-e538-47db-b7d9-4604fa48acaa" data-name="Layer 1" xmlns="http://www.w3.org/2000/svg" viewBox="0 0 389.37 595.63"><title>eEdition</title><path d="M559.73,49.61H244.11V450h95.75l17.61,63.06H249.63c-29.3,0-43.08-13.82-43.08-43.25q0-212.61.18-425.22a59.4,59.4,0,0,1,3.89-19.68C217.41,6.24,233.28,3.05,250.54,3q57-.09,114,0,95.63,0,191.27,0c25.83,0,40.1,14.17,40.11,40.24q.1,214,0,428c0,27.69-14.31,41.76-41.74,41.79-11.1,0-22.21,0-34.9,0,1.94-7,3.61-13.07,5.28-19.12,3.28-11.93,7.05-23.75,9.63-35.83,1.37-6.42,3.79-9.05,10.41-8.3,4.8.55,9.72.11,15.2.11ZM399.92,19.31c-15.13,0-30.25.07-45.38,0-7,0-13.87.79-13.63,9.72.23,8.19,6.8,9.07,13.43,9.06,30.25-.05,60.5-.13,90.76,0,7.12,0,12.85-1.88,12.68-9.8-.16-7.4-5.82-9.12-12.49-9C430.18,19.45,415,19.31,399.92,19.31Z" transform="translate(-206.55 -3)"/><path d="M384.44,351.74v46.06c8.6-.43,10.58-4.43,9.92-11.67-3.51-39-2.83-77.76,4.5-116.37,1.37-7.22,4.28-8.84,10.95-8.68,15.28.38,16.56,0,17.87,15.51,2.17,25.78,2.67,51.72,3.5,77.6.16,5-.71,9.58,7.1,8.9.49-1.13,1.08-2.49,1.68-3.84,5.26-11.84,12.27-14.29,23.77-7.7,1.86,1.06,2.88,4.38,3.37,6.84.78,3.91.8,8,1.1,12,.26,3.43.45,6.87.83,12.74,2.89-3.33,4.41-4.4,5-5.84,2.32-6.09,6-7.23,12.32-5.57,13,3.44,13.56,3.06,13.54,17,0,6.52,2.11,10.73,7.93,12.84,5.14,1.86,5.91,5.31,5.41,10.16-3.75,36.54-12,71.94-27,105.56a12.14,12.14,0,0,1-7.85,6.1c-24.42,3.81-48.9,7.29-73.45,10.21-3,.35-7.48-2.48-9.49-5.17-15.95-21.33-23.7-46.16-27.75-72-3.82-24.35-5.64-49-8.52-73.53-.83-7,1-12.31,6.88-16.82s10.75-10,16.08-15.14Z" transform="translate(-206.55 -3)"/><path d="M392,598.63c-.78-2.3-1.37-3.69-1.72-5.12-2.7-11.1-5.36-22.21-8.41-34.89L512.08,527l10,40.19Z" transform="translate(-206.55 -3)"/><path d="M538.87,213.76v13.92h-266V213.76Z" transform="translate(-206.55 -3)"/><path d="M539,180.13v13.45H272.56V180.13Z" transform="translate(-206.55 -3)"/><path d="M272.71,257.2V243.66h98.43V257.2Z" transform="translate(-206.55 -3)"/><path d="M538.86,243.79V257.1H440.15V243.79Z" transform="translate(-206.55 -3)"/><path d="M358.91,274v14.36H273.3c-2.88-13.24-2-14.38,10.47-14.36C308.41,274,333,274,358.91,274Z" transform="translate(-206.55 -3)"/><path d="M538.32,276.66V290H452.17V276.66Z" transform="translate(-206.55 -3)"/><path d="M458.57,307.93h79.31v13.66H458.57Z" transform="translate(-206.55 -3)"/><path d="M352.44,308v13.42H272.95V308Z" transform="translate(-206.55 -3)"/><text transform="translate(64.95 151.6)" font-size="109.02" font-family="Impact, Impact" letter-spacing="0.06em">NEWS</text></svg>