<svg xmlns="http://www.w3.org/2000/svg" viewBox="0 0 682.2 600.17"><title>home</title><path d="M649.23,465.88V585.64c0,10.25-4.27,14.5-14.54,14.52H485.42c-10,0-14.16-4.18-14.18-14.39q0-68,0-136c0-1.85,0-3.71-.1-5.55-.51-7.27-5.8-12.71-13-12.73q-55.38-.17-110.77,0c-7.76,0-12.4,4.6-13.07,12.42-.37,4.35-.15,8.78-.16,13.17q0,63.94,0,127.89a33.49,33.49,0,0,1-.22,4.69c-.91,6.62-5.15,10.46-11.83,10.51-10.69.09-21.39,0-32.08,0H170.66c-10.26,0-14.51-4.24-14.51-14.51q0-120.41-.08-240.8a9.08,9.08,0,0,1,3.29-7.35q96.82-89.63,193.52-179.39c15.06-14,30.22-27.8,45.13-41.9,2.84-2.67,4.35-2.16,6.93.21q61.2,56.34,122.55,112.51,58.9,54,117.83,108a11.15,11.15,0,0,1,4,9.21C649.19,386,649.23,426,649.23,465.88Z" transform="translate(-61.55 0)" fill-rule="evenodd"/><path d="M506.12,91.94c0-6.6,0-12.12,0-17.63,0-12,.12-24-.09-35.93-.08-3.83,1.19-4.81,4.88-4.8q52.4.18,104.8,0c4.27,0,5.21,1.41,5.19,5.38-.11,50.91,0,101.81-.16,152.72a12,12,0,0,0,4.37,9.87q57,52,113.85,104.31c4.5,4.14,5.81,8.68,4,13.37-2.27,5.86-5.81,8.32-12,8.32-15.38,0-30.77,0-46.17.08a10.78,10.78,0,0,1-8-3Q606.41,259.88,536,195.28q-60-55.09-120.11-110.13c-9-8.21-20-8.28-28.84-.11Q324.37,143,261.8,201q-66.66,61.77-133.26,123.63a10.23,10.23,0,0,1-7.6,3c-15.26-.14-30.52,0-45.77-.08-6.47,0-10.86-2.61-12.73-7.45-2-5.19-.59-10,4.28-14.52L308.84,81.1q40.79-37.81,81.58-75.58c8-7.45,13.31-7.33,21.48.17q45.32,41.67,90.72,83.24C503.44,89.69,504.31,90.4,506.12,91.94Z" transform="translate(-61.55 0)" fill-rule="evenodd"/></svg>