<svg id="ee15ec52-c9e5-43ca-9b17-be4669f0ebf5" data-name="Layer 1" xmlns="http://www.w3.org/2000/svg" viewBox="0 0 800 531.41"><title>kvlife</title><path d="M0,526.34C24.87,489.52,49.33,453.21,73.85,417q65.08-96.14,130.2-192.26c27.33-40.4,48.48-43,84.33-9.1C299,199.72,309.57,184.09,320,168.42c23.68-35.57,47.06-71.36,71.07-106.73C413,29.46,447.23,28.4,469.37,60.08Q633.57,295.19,797,530.88c.94,1.36,1.4,3.05,3,6.73a391.69,391.69,0,0,0-142.54-20.67c-70.68,2.6-138,19.47-203.2,46.23-5.76,2.37-12,5.31-18,5.14-46.72-1.33-93.4-3.36-140.1-5.15,25.74-27.12,130.37-59.71,273.08-86.1-38.09-7.58-76.58-8.9-115.42-6.87-74.64,3.91-145,26.07-215.61,48.21C180.36,536.54,122,553.49,60.09,548.7,38.4,547,18.38,540.73,0,526.34ZM601.14,320.75c-4.61-7.34-7.17-11.78-10.1-16Q519.77,202.45,448.36,100.2c-15.11-21.58-22.68-21.34-37.84,1Q355.11,182.95,299.78,264.7c-9.35,13.77-13.72,13.41-21.73-.82-22.68-40.21-24.65-40.3-50.67-1.93-19.34,28.52-38.63,57.06-58.2,86,38.78,34.54,81.6,41.5,127.41,26,26-8.8,50.73-21.9,75.57-34,53.26-26,108-44.38,168.4-33.37C559.66,310,578.46,315.36,601.14,320.75Z" transform="translate(0 -36.91)" fill-rule="evenodd"/></svg>