<svg xmlns="http://www.w3.org/2000/svg" viewBox="0 0 598.73 598.6"><title>login2</title><path d="M95.27,301C94.95,136.21,229.33,1.15,394.53,1.4,560.14,1.65,693.83,133.81,694,300.52,694.18,466.31,561.47,599.85,395,600,228.92,600.14,96.44,467.21,95.27,301Z" transform="translate(-95.27 -1.4)" fill-rule="evenodd"/><path d="M186.3,488.22C93.18,387.6,84.77,221.07,188.56,109.27,299.06-9.74,484.3-9.49,595,103.22c109,110.94,104.55,283.43,4.88,388.66-1.88-2.4-3.65-4.81-5.56-7.12-13.32-16-30.44-27.06-48.71-36.46-23.13-11.94-47.71-20.37-72.1-29.24-4.9-1.78-9.71-3.85-14.66-5.42-8.57-2.71-12.91-8.78-13.53-17.3-.71-9.61-.69-19.26-.89-28.89a2.91,2.91,0,0,1,1.22-2.1c7.21-4.55,11.09-11.57,14.16-19.09a110,110,0,0,0,7.87-34.67c.12-2,.49-3.27,2.63-4.12,4.59-1.8,7.53-5.56,9.27-9.95,1.67-4.16,2.53-8.64,3.79-13,1-3.36,1.88-6.77,3.05-10.05,1.85-5.1,4.2-10.05,5.78-15.24,2.15-7.09.58-9.45-7.25-11.25.68-5.14,1.14-10.4,2.12-15.58,2.6-13.68,5.63-27.3,8.06-41,1.59-8.95,2.19-18-.19-27-1.91-7.24-6.42-11.83-13.78-14.07-9.77-3-18.07-8.19-23.66-17.19-4.64-7.5-12-11.77-20.5-11.54-11.6.31-22.05-3.53-32.86-6.32-10.17-2.63-20.49-4.8-30.85-1.46-7.43,2.39-14.66,5.41-21.85,8.44a44.18,44.18,0,0,1-14.68,3.86c-7.06.43-12.13,4.55-15.37,10.49a25.56,25.56,0,0,1-15.21,12.31c-14.28,4.7-19.5,15.54-19.82,29.27-.31,13.41,3.28,26.24,6.3,39.15,2,8.5,3.74,17,5.5,25.56a38.43,38.43,0,0,1,.35,5.25c-7.68,1.54-9.11,3.91-7.07,11.28a49.52,49.52,0,0,0,2.23,6.41c3.27,7.73,6.23,15.47,7.71,23.84,1.41,7.89,5,14.83,13,18.44.74.33,1.2,1.75,1.32,2.73,1.2,11.19,3.11,22.22,7.16,32.77,3.27,8.58,7.26,16.65,15.38,21.86a3,3,0,0,1,1.11,2.22c-.37,10.18-.61,20.37-1.37,30.54-.47,6.3-3.76,11.11-9.87,13.49-12,4.69-24,9.44-36.12,13.93-24.59,9.08-49,18.57-71.32,32.59C208.32,466,197,475.08,187.83,486.52,187.41,487.05,186.94,487.54,186.3,488.22Z" transform="translate(-95.27 -1.4)" fill="#fff" fill-rule="evenodd"/></svg>