<svg xmlns="http://www.w3.org/2000/svg" viewBox="0 0 428.47 600"><title>login1</title><path d="M401.19,268.5c-76.1,0-138,61.91-138,138s61.91,138,138,138,138-61.91,138-138S477.29,268.5,401.19,268.5Zm26.15,129.4c-3.45,2.57-4.53,5.17-4.5,9.23q.24,31.66,0,63.32c0,9-3.9,16-12.07,20.16-7.71,3.89-15.3,3-22.27-1.92-6.62-4.71-9-11.55-9-19.44,0-20.69-.08-41.39.09-62.08,0-4.06-1-6.67-4.47-9.24a41.87,41.87,0,0,1-14.56-47.64,43,43,0,0,1,81.29-.05A41.91,41.91,0,0,1,427.34,397.9Z" transform="translate(-186.95)"/><path d="M576.64,262.67a24.36,24.36,0,0,1-3.87-12.47c-.46-15.1-.18-30.23-.18-45.35l.9,0c-1-20.25-.14-40.78-3.27-60.69C556,53.91,475.1-7.81,383.79.8,299.69,8.74,232.67,79.7,230.26,164c-.83,29.18-.21,58.4-.56,87.59a19.51,19.51,0,0,1-3.25,10.21c-32.87,47.92-45.6,100.61-36.77,158,19,123.6,143.76,205,265.08,173.26C599.87,555.18,662,386.54,576.64,262.67Zm-282-101.92c.32-15.75,6.06-30.34,14-43.9A107.18,107.18,0,0,1,423.57,66.28c45.45,9.84,80.33,47,83.83,93,2.3,30.26.88,60.81,1.1,91.23,0,.31-.4.62-1,1.45-1.56-1.26-3.11-2.46-4.6-3.72-25-21.23-53.79-32.88-86.72-33.75-23-.61-45.94-1-68.23,6.4a143,143,0,0,0-48.33,27.25c-1.26,1.08-2.48,2.2-3.76,3.24-.27.22-.75.17-1.38.3C294.5,221.11,294.06,190.92,294.68,160.75ZM401.19,560.1c-84.69,0-153.59-68.9-153.59-153.58s68.9-153.59,153.59-153.59,153.58,68.9,153.58,153.59S485.88,560.1,401.19,560.1Z" transform="translate(-186.95)"/></svg>