<svg id="573ed011-b594-4e7f-8654-268813634bba" data-name="Layer 1" xmlns="http://www.w3.org/2000/svg" viewBox="0 0 658.5 597.18"><title>Logout3</title><path d="M565.08,356.66q-49.56,0-99.12,0c-52.51.07-105,1-157.51,0-42.27-.8-67.44-34.08-56.34-71.84,7.35-25,27.88-39.15,58.52-39.24,75.57-.22,151.15-.08,226.73-.09h32.15c-13.69-14.42-24-25.56-34.59-36.37-18.4-18.72-37.65-36.65-55.39-56-22.64-24.65-21.72-57.48.88-79.09,21.72-20.76,54.82-21.74,77.4.42q94.54,92.75,187.35,187.27c24.39,24.89,23.64,55.09-1.46,80.63Q651.71,436,558.11,528c-23,22.65-57.79,21.39-79.09-.77-21.14-22-21.87-54.47.33-77.4,28.65-29.59,58.71-57.8,88.17-86.61Z" transform="translate(-104.5 -2.36)"/><path d="M104.67,301.19q0-89.51,0-179c.06-78.16,33.36-114,111-119.09a379.45,379.45,0,0,1,42.94-.22c18.91.91,29.93,12.23,29.77,30.5-.17,19.55-11.55,30.54-32.16,30-11.13-.3-22.27-.62-33.41-.6-43.13.07-57.41,14-57.45,56.94q-.17,173.05,0,346.11c0,9.55-.35,19.11,0,28.64,1.06,26.33,11.84,39.47,38.29,43.16,15.58,2.17,31.63,1.4,47.47,1.18,23.09-.33,37.45,10.86,37.67,30.22.21,18.63-11.84,29.07-34.89,29.83-13.52.45-27.05.88-40.57.63-66-1.21-108.16-43.49-108.68-109.71C104.26,426.91,104.64,364.05,104.67,301.19Z" transform="translate(-104.5 -2.36)"/></svg>