<svg xmlns="http://www.w3.org/2000/svg" viewBox="0 0 728.76 600" version="1.1">
  <path d="M661.56,154.4H136.09C192,63.76,269.6,10.66,374.33,1.23,503.39-10.39,611.69,62,661.56,154.4ZM435.13,121c-5.86-27.66-11.51-54.44-25.41-78.49-6.43-11.12-13.63-11.3-20-.62C375.18,66.05,370.13,93.29,363.6,121Zm-161.89.48c17.29,0,32.11-.36,46.89.16,7.17.25,9.22-2.76,10.81-9.22C335.43,94.13,340.83,76,346,57.9c1-3.58,2.6-7,4.78-12.74C315.65,62.9,292.95,88.91,273.24,121.5Zm252.39-.36C506,88.59,483.15,62.9,450,46l21.27,75.14Zm10.54-51.63-1.6,2.38c9.06,14.81,18,29.68,27.29,44.36,1.37,2.17,4.08,4.75,6.32,4.9,8.61.57,17.27.23,25.92.23l1.64-3.75Zm-332.9,48.14,2.21,3.77c7.71,0,15.43.27,23.11-.15,2.54-.14,6.08-1.34,7.3-3.25,9.78-15.3,19.12-30.89,28.6-46.38l-1.74-2Z" transform="translate(-38.24)"/>
  <path d="M658.47,454c-54.49,83.85-128,135.2-226,144.35C307.52,610,211.05,559.77,140,454ZM364.14,484.57c5.49,20.17,10,38.5,15.62,56.44,2.17,6.87,6.44,13.37,10.89,19.16,7.65,9.94,15.63,9.65,20.13-1.86,9.22-23.58,16.75-47.82,25.43-73.11-6.6-.32-9.88-.6-13.17-.61C404.2,484.55,385.33,484.57,364.14,484.57Zm-35.21.81H278.15c10.86,22.59,47,63.56,71.21,67.56Zm121.22,68.43c26.11-10.71,63.1-47.16,70-68.6H470.06Zm-187.8-23.26,2-2.25C256.08,515.19,247.94,502,239.52,489c-1.23-1.9-3.71-4.06-5.72-4.18-8-.48-16-.2-24-.2l-1.57,3.19Zm272.28-2.14,1.66,2.48,54.26-43.1-2-3.21c-6.63,0-13.37-.72-19.84.28a16.66,16.66,0,0,0-10.2,6.17C550.14,503.2,542.53,515.91,534.64,528.42Z" transform="translate(-38.24)"/>
  <path d="M708.4,197c-205.31.88-410.63.47-615.94.47-33.82,0-54,20-54.15,54s-.06,67.58,0,101.36c0,33.59,20.54,53.85,54.31,53.84H402.24q155.93,0,311.85,0c31.68,0,52.34-20.79,52.42-52.31.08-32.67-1.35-65.42.38-98C769,217.11,741.36,196.84,708.4,197ZM231.7,381.43H195.41l-21.54-72.37v72.38H139.26V222.22h34.61l23.21,71.69V222.22H231.7Zm112.57,0H272.48V222.22h69v31.86H313.88v30.19h25.86v30.29H313.88v35h30.39Zm173.49,0H466.07q-7.1-36.69-12.53-83.49Q451.07,318,442,381.43H390.6l-18.53-159.2h40.22l4.38,55.55,4.23,53.7q2.29-41.69,11.45-109.25h43q.86,7,4.52,52.51l4.57,60.57Q488,277.5,496,222.22h40.22ZM655.7,365.79q-4,8.07-15.39,13.52t-26.55,5.46q-16.62,0-28.37-6.29t-15.39-16q-3.64-9.74-3.64-27.63V324.39h38.45v19.37q0,8.95,1.62,11.5t5.75,2.56a6.74,6.74,0,0,0,6.15-3.25q2-3.24,2-9.64,0-14.06-3.83-18.39T597.14,312.1q-15.44-10.23-20.45-14.85a34.73,34.73,0,0,1-8.31-12.78q-3.3-8.16-3.29-20.85,0-18.29,4.67-26.75t15.09-13.23q10.42-4.77,25.17-4.77,16.13,0,27.48,5.21t15,13.13q3.69,7.92,3.69,26.89v6.29H617.79v-11.8q0-8.26-1.48-10.52t-4.92-2.26a6.26,6.26,0,0,0-5.65,3.05q-1.92,3.05-1.92,9.25,0,8,2.16,12t11.7,9.73q27.64,16.41,34.82,26.93t7.18,33.93Q659.68,357.73,655.7,365.79Z" transform="translate(-38.24)"/>
</svg>
