<svg xmlns="http://www.w3.org/2000/svg" viewBox="0 0 758.92 600"><title>news</title><path d="M99,116.25,708.88,0c9.23,49,18.34,96.42,27.11,143.95,10,54,19.48,108,29.42,162,3.74,20.31,8.29,40.47,12.2,60.74,9.71,50.31-11.32,85.62-61.37,99.56-62.08,17.3-124.5,33.45-186.94,49.42-107.37,27.46-215,53.74-322.21,82-27.87,7.35-46-3-62.66-23.74,32,12.7,60.52-2.83,89.71-10.2,155.51-39.25,310.81-79.3,466.26-118.76,26.21-6.65,46.87-18.65,51.37-47.68,1.34-8.63,0-17.8-.94-26.63-.73-6.85-2.92-13.53-4.15-20.34-18.44-101.38-37-202.74-55-304.2-2.42-13.64-7.39-16.69-21.22-14C515,62,359.49,91.3,204,120.78c-21.46,4.07-42.82,8.68-64.33,12.44-10,1.75-12.92,5.35-10.75,16.15,11.75,58.52,22.33,117.27,33.76,175.85,10.89,55.81,23.25,111.36,32.81,167.39,2.23,13.09-1.26,29.14-7.3,41.23-12.63,25.29-40.51,26.58-56.78,3.49-7.55-10.72-12.73-23.39-17.46-35.75C96.8,456.81,80.66,411.66,63.48,366.92,50.08,332,35.68,297.54,21,261.05c21.39-7.12,46.39-15.51,71.44-23.76,28.09-9.25,28.1-9.19,22.58-37.86C109.79,172.35,104.58,145.25,99,116.25Z" transform="translate(-20.99)"/><path d="M681.86,253.79c6.44,33.31,12.47,64.41,18.46,95.53,2.09,10.87,4.83,21.7,5.66,32.67.26,3.38-4.29,9.74-7.5,10.39-54.68,11-109.49,21.27-165.63,32-1.37-5.12-2.78-9.53-3.71-14Q517.88,356,506.78,301.66c-1.77-8.59.19-14.64,9.88-16.48C570.83,274.94,625,264.61,681.86,253.79Z" transform="translate(-20.99)"/><rect x="231.27" y="317.29" width="239.88" height="20.62" transform="translate(-75.69 70.87) rotate(-10.7)"/><rect x="242.27" y="374.79" width="239.88" height="20.62" transform="translate(-86.17 73.91) rotate(-10.7)"/><rect x="253.27" y="432.29" width="239.88" height="20.62" transform="translate(-96.65 76.95) rotate(-10.7)"/><path d="M200.42,182l28.93-5.79,48.85,47.91-11.1-55.47,29.2-5.84L316.36,263l-29.2,5.84L238.6,221.34l11,55-29.13,5.83Z" transform="translate(-20.99)"/><path d="M319.61,158.11l83-16.62,4.28,21.41-52,10.4,3.19,15.93,48.21-9.65L410.44,200l-48.21,9.65,4,19.76,53.48-10.7,4.54,22.7-84.53,16.92Z" transform="translate(-20.99)"/><path d="M413.3,139.36l29.42-5.89,21.83,54,4.27-59.23,29.32-5.87,26.76,52.94-.61-58.17,29.27-5.86-2,104.68L521.15,222l-30.22-59.6L486,229.07l-30.38,6.08Z" transform="translate(-20.99)"/><path d="M574.51,176.87l29.11-7.75q2.39,7,6.09,10.16,6,5.13,14.9,3.35,6.63-1.33,9.6-5.16a9.51,9.51,0,0,0,2.15-7.93,9.38,9.38,0,0,0-4.82-6.29q-4-2.39-17-2.64-21.3-.5-31.5-6.36a25,25,0,0,1-12.63-17.6,26.8,26.8,0,0,1,1.56-15.5q3.1-7.77,11.31-13.5t23.87-8.87q19.22-3.85,30.73,1.28t16.55,20.34L625.53,128q-2.52-6.54-6.86-8.87t-10.91-1q-5.4,1.08-7.68,3.92a7.16,7.16,0,0,0-1.62,6.12,5.69,5.69,0,0,0,3.12,3.86q2.58,1.55,11.13,1.61,21.19.31,30.87,3t15,8.55a28.74,28.74,0,0,1,7,14,32.43,32.43,0,0,1-1.78,18.85,34,34,0,0,1-12.44,15.33q-8.73,6.12-23.3,9-25.58,5.12-37.4-2.76T574.51,176.87Z" transform="translate(-20.99)"/></svg>