<svg xmlns="http://www.w3.org/2000/svg" viewBox="0 0 532.9 598.92" version="1.1">
  <path d="M641,544.32c-4.19,0-8.39,0-14,0V532.25c0-107.76.42-215.53-.29-323.28-.34-52.54-19.21-98.78-55.48-136.77C516.56,14.93,448.45-5.73,370.77,3,262.14,15.24,174.56,102.94,176.21,220.4c1.46,104.81.32,209.64.29,314.48,0,2.82-.35,5.66-.59,9.39-5.39,0-10.22,0-15,0q-19.67.19-24.63,19.19c-5.27,20.07,8.05,36.45,29.93,36.46q208,.06,416.05,0c19.53,0,39.06.18,58.6-.06,15.95-.2,27.24-12.23,27.17-28.26C667.91,554.08,658.39,544.43,641,544.32ZM490.3,270.56h-56v126.7H369.63V270.7H313V206.78h43.54c12.7,0,12.7,0,12.71-12.74,0-9.76.29-19.54-.05-29.28-.21-6,2.11-8.06,8-8,16.27.23,32.55.29,48.81,0,6.52-.13,8.58,2.5,8.3,8.7-.38,8.45-.21,16.92-.12,25.38.2,17-2.46,16,16.49,16,13,0,25.94,0,39.64,0Z" transform="translate(-135.1 -1.08)" fill-rule="evenodd"/>
</svg>
