<svg xmlns="http://www.w3.org/2000/svg" viewBox="0 0 800 581.09" version="1.1">
  <text transform="translate(176.5 200.91)" font-size="103.42" font-family="Impact, Impact" letter-spacing="0.06em">NEWS</text>
  <path d="M.14,589.63c0-16-.48-31.38.37-46.72C.7,539.44,5,535.6,8.3,533c31.85-25.4,63.88-50.57,97-76.67l-8.79-4.83C75.39,439.9,63.86,422.16,63.82,398q-.29-165.19,0-330.38c.07-33.43,25.61-59,59.08-59q260,0,520,.37c10.6,0,21.21-.7,31.8-.43,31,.8,56.71,25.08,56.77,56,.19,106.44-.57,212.88-1,319.32a24.52,24.52,0,0,0-.11,3.66c5.2,34.49-11.47,55.7-43.38,69.37,20.1,14.72,39.36,28.85,58.66,42.94,15.81,11.54,31.89,22.71,47.3,34.76a19.49,19.49,0,0,1,6.56,12.73c.84,13.72.31,27.53.31,42.2ZM120.93,70.76V407.12h553.8V70.76ZM106,501.14H695.1c-15.92-14.54-29.86-27.58-44.26-40.09-2.33-2-6.71-2.37-10.14-2.36-19.15.08-38.3.76-57.45.77q-212.39.1-424.78.24c-5.14,0-11.45,1.91-15.19,5.22C131.07,475.69,119.8,487.53,106,501.14Zm368.13,42.57c-4.85-10.34-8.13-18.65-12.63-26.24a13,13,0,0,0-9.39-5.43c-31.78-.39-63.57-.33-95.35,0-3.08,0-7.66,1.79-8.92,4.14-4.49,8.39-7.85,17.39-12.24,27.54Z" transform="translate(0 -8.54)"/>
  <path d="M628.1,217.32H453.77v-94.7H628.1Z" transform="translate(0 -8.54)"/>
  <path d="M381.62,369.79H176.54V344.15H381.62Z" transform="translate(0 -8.54)"/>
  <path d="M628.12,369.39h-206V343.48c7.37,0,14.18-.06,21,0,41.89.44,83.77,1.05,125.66,1.28,14.21.08,28.42-1,42.64-1.18,16.92-.26,16.92-.12,16.75,16.59C628.1,362.57,628.12,365,628.12,369.39Z" transform="translate(0 -8.54)"/>
  <path d="M422.26,268.25V243h206v25.22Z" transform="translate(0 -8.54)"/>
  <path d="M628.16,293.94c-.29,29,3.12,25-22.57,25.19-56.6.45-113.2.63-169.8.92-4,0-8.1,0-13.24,0V293.94Z" transform="translate(0 -8.54)"/>
  <path d="M176.17,268.48V243h205.3v25.46Z" transform="translate(0 -8.54)"/>
  <path d="M381.86,293.91v25.32H176.63V293.91Z" transform="translate(0 -8.54)"/>
</svg>
