<svg xmlns="http://www.w3.org/2000/svg" viewBox="0 0 798.04 525.38" version="1.1">
  <path d="M131.32,497.87c-25.47-17.76-52.7-32.22-74.3-52.64-71.17-67.28-75.15-160.08-1.38-229.9,40.14-38,89-58.86,142.84-68.19,78.49-13.61,154-4.82,224.36,34.41C465.59,205.38,500,238,515.16,285.72c18.68,58.78,2.17,110.1-40.15,153.13-48.24,49.05-109.08,71.54-176.24,77.92-23,2.19-46.48.22-69.72.62-6.75.11-13.83.78-20.14,3-33.8,11.8-67.29,24.51-101.21,36C87,560,88.6,542.73,94.74,537.09,109,524,119.91,509.93,131.32,497.87Zm27.61-196.31c-18-.42-31.11,12.3-31.35,30.44-.18,13.27,13.41,26.18,28.12,26.71,17.07.62,30.4-11.44,30.77-27.84C186.84,314.74,174.81,301.93,158.93,301.56Zm207.33,57.17c16.89.42,30.19-12.11,30.25-28.5a29.18,29.18,0,0,0-58.33-.77C337.75,345.5,350.06,358.33,366.27,358.74Zm-75.11-28c.28-16.22-11.81-28.89-28-29.31S234,313,233.49,328.92c-.57,16.73,11.83,29.69,28.52,29.81C278.32,358.85,290.88,346.78,291.16,330.75Z" transform="translate(-1.96 -31.45)"/>
  <path d="M631.41,416c-12.37-22.66-9.06-31.75,12.47-40.73,27.34-11.39,52.38-26.39,73.54-47.45,58.09-57.84,57.2-133.2-2.69-189.42C673.8,99.92,623.79,81,569.1,74.16,493.82,64.69,422.93,77.06,358.82,120c-11.42,7.64-23.09,5.58-29.46-4.31s-3.45-20.88,8-28.92C378.18,58.16,424,42.31,472.91,35.45c78.4-11,153.21.15,222.69,39.62,33.59,19.08,61.69,44.35,81.54,77.88,37,62.53,28.66,137.15-22.09,192.73a271.26,271.26,0,0,1-35.55,32c-12.61,9.65-26.6,17.48-41.13,26.85,8.49,9,17,17.94,25.36,27,11.39,12.33,13.58,24.21,6.6,34.93s-18.89,13.6-34.55,8c-30.44-11-60.7-22.46-91.37-32.73-9.86-3.3-20.76-4.63-31.21-4.78-16.32-.24-26.54-6.86-26.77-19.61-.22-12.1,9-17.95,24.72-20.68,17.23-3,32.29,1.4,47.63,7.57C608.76,408.18,619,411.51,631.41,416Z" transform="translate(-1.96 -31.45)"/>
</svg>
