<svg id="cce09f20-6e10-4bc4-a776-3387d3f8e958" data-name="Layer 1" xmlns="http://www.w3.org/2000/svg" viewBox="0 0 714.9 599.87"><title>opinion1</title><path d="M322,455.53c26.39-2.47,51.61-3.37,76.31-7.42,74.07-12.16,140.39-41,193.56-95.6,32.26-33.12,53.41-72.31,60.92-119.64C705.29,259.39,747,294.51,758,355c7.56,42-6.24,79-34.27,110.35a208.41,208.41,0,0,1-33.6,30c-9,6.47-10.52,13.46-8.31,23,6,26.19,19.83,47.83,38.21,67,3.79,4,6,9.44,8.93,14.21-5.79-.13-11.81.76-17.33-.54-44-10.3-85.43-26.09-121.19-54.91-4.46-3.59-13-3.83-19.39-3-39.59,4.9-78.87,4-117.66-5.54-48.47-11.86-91.62-33.38-125-71.69C326.2,461.55,324.43,458.83,322,455.53Z" transform="translate(-45.1)"/><path d="M598.28,143.64c-22.82-51.39-63.44-85-112.8-108.69C413.73.49,338-7.28,260.25,6.35,196.77,17.47,139.62,42.76,94.11,90.09c-62.68,65.18-65.4,154.3-7.21,223.23,20,23.63,44.36,41.47,70.89,57,5.21,3,10.63,9.9,11.35,15.59a131.91,131.91,0,0,1-.35,37.62c-4.53,27.36-19.2,49.77-37.75,69.9-2.17,2.35-2.82,6.1-4.17,9.21,2.89.58,6.06,2.26,8.61,1.59,47.38-12.5,93.72-29.35,127.12-66.19,19.63-21.64,37.86-34.83,61.2-27,84.44.84,180-26.73,239.43-90.53C608.52,271.88,626.2,206.51,598.28,143.64ZM546.57,290.29c-15.6,18-35.55,33.29-55.91,46-58,36.17-122.38,46.84-189.8,41.45-20.14-1.61-35.56,5.13-46.91,22.18-13.67,20.54-33.4,34-53.94,45,.69-19.31,1.68-37.82,1.93-56.34.37-26.92-16.78-40.7-38-53.22C119.55,309.27,86,274,78.35,220.38c-5.92-41.42,9.92-76.06,37.18-105.77,37.14-40.48,84.69-63,137.6-74,82.55-17.24,162.2-9.21,236.44,33,37.3,21.2,67.83,49.66,82.59,91.44C588.64,211.69,577.84,254.17,546.57,290.29Z" transform="translate(-45.1)"/></svg>