<svg xmlns="http://www.w3.org/2000/svg" viewBox="0 0 723.86 598.96" version="1.1">
  <path d="M144.23,598q0-21.76,0-43.51,0-42.48,0-85c0-14.82-7.06-21.95-21.91-22.06-16.37-.13-32.74,0-49.1,0-21.18-.11-32-11-32-32.3q0-191,0-381.93Q41.16.57,73.67.51,403,.47,732.31.51,765,.51,765,33q0,191,0,381.93,0,32.46-32.67,32.46-208.5,0-417-.22c-13,0-22.42,4-31.5,13.21-43.73,44.45-88,88.34-132.08,132.47a72.31,72.31,0,0,0-5.26,6.62Zm173.4-355.55q71.67,0,143.33,0a67,67,0,0,0,10.09-.54A17.64,17.64,0,0,0,486,221c-1.71-10.33-9-15.53-22.46-15.53q-146.06-.06-292.11,0a47.91,47.91,0,0,0-7.75.58,17.48,17.48,0,0,0-14.6,14.26c-1.32,7.87.78,15,8,18.64,4.6,2.33,10.36,3.27,15.61,3.3C221,242.51,269.34,242.41,317.64,242.41ZM511.41,136.1q60.36,0,120.72,0a70.4,70.4,0,0,0,9.33-.35,17.92,17.92,0,0,0,15.93-17.34c.35-9.42-5.7-16.91-15.27-18.56a59.5,59.5,0,0,0-10.05-.79q-120.72-.06-241.44,0a58.67,58.67,0,0,0-10.82.92,17.54,17.54,0,0,0-14.42,16.94c-.44,11.67,7.68,19.12,21.41,19.15C428.33,136.16,469.87,136.1,511.41,136.1Zm24.77,175.67q-48.31,0-96.62,0a53.29,53.29,0,0,0-9.31.54,17.89,17.89,0,0,0-14.66,16C414.8,336.1,418.8,344,426,346.67a43.14,43.14,0,0,0,14.46,2.11q95.84.2,191.68.05a86.05,86.05,0,0,0,10.06-.77c7.23-.86,11.8-5.29,14.12-11.8,2.47-6.91,1.52-14.27-4.24-18.53a31.17,31.17,0,0,0-17-5.7C602.15,311.51,569.16,311.78,536.18,311.78Zm-285.26,0q-32.74,0-65.48,0c-6.75,0-13.54-.26-20.25.34a17.75,17.75,0,0,0-16.46,17.64c-.21,9.39,5.94,16.76,15.56,18.33a63.06,63.06,0,0,0,10.07.73q76.78.07,153.56,0a68.37,68.37,0,0,0,10.83-.87c7.46-1.21,12-6,13.94-13s.41-14.14-5.65-18.16A31,31,0,0,0,331.2,312C304.45,311.53,277.68,311.78,250.92,311.78ZM220.61,136.06v0c17.12,0,34.25.09,51.37,0,13.17-.09,21.66-7.36,21.73-18.31.07-10.54-8.14-18.51-20.71-18.62-34.5-.3-69-.38-103.51.18-5.41.09-11.64,2.9-15.92,6.39-5.62,4.58-6.25,11.85-3.55,18.65,3.1,7.8,9.37,11.59,17.66,11.65C185.32,136.14,203,136.06,220.61,136.06ZM604.95,242v.39c10.65,0,21.36.62,31.94-.26a29.7,29.7,0,0,0,15.4-5.82c5.63-4.53,6.54-11.73,4-18.62-2.4-6.52-7.15-11.45-14.3-11.56-24.14-.38-48.29-.24-72.43-.11a14.53,14.53,0,0,0-6.57,2.1c-7.25,4-10.43,11.52-8.73,19.84,1.56,7.65,7.36,13.49,15.65,13.9C581.56,242.44,593.26,242,604.95,242Z" transform="translate(-41.14 -0.49)"/>
</svg>
