<svg xmlns="http://www.w3.org/2000/svg" viewBox="0 0 773.83 600" version="1.1">
  <path d="M400.66,99.43q116.82,0,233.64,0c91,.11,152.6,62,152.64,153.3q.05,99.77,0,199.53c-.11,82.88-63.78,147.36-146.53,147.51q-239.58.45-479.17,0c-83.59-.13-147.9-64.83-148-148.22q-.15-100.62,0-201.24c0-87.07,63.23-150.63,150.41-150.86C242.63,99.26,321.64,99.43,400.66,99.43Zm49.47,251.17c.34-96-75.5-173-170.71-173.38-96.8-.41-174.58,75.86-174.81,171.41-.23,95.73,77.5,174,172.83,174C372.5,522.65,449.8,445.65,450.14,350.59Zm185.14-80.41c13,0,26.05.19,39.07,0,17.12-.3,25.89-8.69,27.34-25.65,3.3-38.8-2-53.53-20.69-57.66a8,8,0,0,0-1.68-.26c-28.84-.1-57.71-.9-86.53,0-15.73.49-23.48,12.1-22.82,26.53.9,19.66-9,43.3,16.22,55.89,3.28,1.64,7.77,1.1,11.71,1.14C610.35,270.27,622.81,270.19,635.27,270.19Z" transform="translate(-13.16 0)"/>
  <path d="M268.71.41c17,0,34-.25,51,.08,17.35.33,25.89,8.92,26.76,26,2.7,53.5-.42,56.77-54.21,56.74-23.25,0-46.51.22-69.76-.09s-30.81-7.94-31.13-30.52C190.79,8.86,188.35-2.21,243.19.34,251.68.74,260.2.4,268.71.41Z" transform="translate(-13.16 0)"/>
  <path d="M277.27,481.69c-74.93-.19-132.14-57.83-132-133a131.67,131.67,0,0,1,131.94-132c73.5-.14,133.68,59.59,133.81,132.8C411.14,423,351.61,481.87,277.27,481.69Zm.32-215.83c-47.11-.05-84.68,37.16-84.53,83.72.15,46.41,38.37,84.6,84.49,84.41a83.83,83.83,0,0,0,84.07-84.37C361.65,302.25,325.19,265.91,277.59,265.86Z" transform="translate(-13.16 0)"/>
</svg>
