<svg xmlns="http://www.w3.org/2000/svg" viewBox="0 0 600.38 600" version="1.1">
  <path d="M239.85,600a234.65,234.65,0,0,1-78.35-13.53c-37.1-13.37-53.28-42.82-60.82-78.7-11.82-56.36-5.54-111.91,8.41-167,1.32-5.25,2.8-10.49,4.51-15.63,3-9.14,5.44-9.75,12.26-3q26.9,26.7,53.66,53.54L370.85,567c9,9,8.44,11.22-3.74,14.78A437.55,437.55,0,0,1,239.85,600Z" transform="translate(-94.47 0)" fill-rule="evenodd"/>
  <path d="M541.66,0c29.63-.18,58.58,3.44,86.59,13.68,33.45,12.21,50.16,37.94,58.44,70.68,11.83,46.83,9.59,93.87.93,140.78-3,16.3-7.37,32.36-11.67,48.39-3,11-5.54,11.45-13.75,3.23q-87.56-87.52-175.07-175.08Q452.56,67.1,418,32.45c-8.41-8.43-7.86-10.86,3.77-14.22C460.9,6.93,500.71-.16,541.66,0Z" transform="translate(-94.47 0)" fill-rule="evenodd"/>
  <path d="M651.92,308.5c-15.4-14.94-30.38-30.27-45.56-45.42Q496.74,153.44,387,43.87c-3.43-3.44-7.87-5.86-11.48-8.51-4.77,1.63-8.17,2.51-11.32,3.92Q204.8,110.49,133.64,269.94c-4,8.86-2.57,15.39,4.32,22.25Q270.56,424.34,402.75,557c6.58,6.6,12.86,8,21.42,4.17q160.52-71.5,231.78-232C659.6,320.92,658.36,314.72,651.92,308.5ZM425.59,200.32c-5.16,5.35-11.74,4.5-18.91-3-4.16-4.36-7.69-9.29-11.44-13.9-10.49,10.76-19.15,19.61-29.69,30.4,4.7,4.08,10.08,8.48,15.11,13.22,5.43,5.15,6.65,11.4,1.15,16.86s-11.71,4-16.83-1.35c-4.62-4.85-9-9.91-13.32-14.67-10.36,10.39-19.1,19.11-29.84,29.86,5,4.12,10.59,8.37,15.71,13.12s6.21,10.83,1.18,16.11c-5.38,5.63-11.6,4.65-16.84-.67-4.7-4.8-9-10-12.49-13.87-10,9.89-18.92,18.73-29.32,29.06,3.4,3.08,8.68,7.59,13.69,12.36,5.38,5.12,6.86,11.12,1.31,16.82s-11.51,4.2-16.8-1c-3-2.89-6.06-5.73-8.81-8.85-3.36-3.8-6.42-5.54-12.21-3.92-8.73,2.45-14.48-4.55-13.17-13.4.5-3.28-.8-7.48-2.7-10.33-2.59-3.9-6.62-6.88-9.91-10.37-4.85-5.12-5.86-10.94-.7-16.14s11.24-4.67,16.1.49,9.28,11.33,13.49,16.57l30.52-31.2c-4.5-3.67-9.83-7.69-14.8-12.13-5.82-5.21-7.46-11.57-1.51-17.5,5.74-5.73,11.75-3.75,16.69,1.69,4.51,5,8.68,10.2,13.44,15.82,9.94-11,18.22-20.22,27.35-30.32-3.4-3.54-8.37-8.77-13.43-13.88s-6.44-10.72-1.27-16.1c5.39-5.59,11.68-4.9,16.82.58,4.81,5.11,8.91,10.85,13.26,16.24l30.44-31.46c-4.47-3.57-10.1-7.7-15.3-12.32-5.61-5-6.79-11.22-1.43-16.79s11.52-4.21,16.83,1c2.5,2.46,5,4.93,7.51,7.41,4,4,6.94,8,14.45,4.84,6.83-2.93,14.14,5,11.67,12.67-2.05,6.35.43,9.45,4.3,13,2.12,1.93,4.13,4,6.16,6C429.76,189.16,430.83,194.91,425.59,200.32Z" transform="translate(-94.47 0)" fill-rule="evenodd"/>
</svg>
