<svg xmlns="http://www.w3.org/2000/svg" viewBox="0 0 600.38 600"><title>sports</title><path d="M375.54,35.37c3.61,2.65,8,5.06,11.48,8.51q109.74,109.5,219.34,219.21c15.18,15.15,30.16,30.48,45.56,45.42,6.44,6.21,7.69,12.41,4,20.6q-71.35,160.56-231.78,232c-8.56,3.81-14.84,2.43-21.42-4.17Q270.56,424.35,138,292.19c-6.89-6.86-8.31-13.38-4.32-22.25Q204.91,110.56,364.22,39.28C367.37,37.88,370.77,37,375.54,35.37ZM351.67,227.87c4.32,4.75,8.7,9.82,13.32,14.67,5.12,5.39,11.26,6.9,16.83,1.35s4.28-11.71-1.15-16.86c-5-4.74-10.41-9.14-15.11-13.22,10.54-10.79,19.19-19.64,29.69-30.4,3.75,4.61,7.28,9.54,11.44,13.9,7.17,7.51,13.75,8.36,18.91,3s4.17-11.16-3.54-19c-2-2-4-4.11-6.16-6-3.86-3.57-6.35-6.67-4.3-13,2.47-7.7-4.84-15.6-11.67-12.67-7.51,3.21-10.47-.82-14.45-4.84-2.49-2.49-5-5-7.51-7.41-5.31-5.24-11.36-6.71-16.83-1s-4.17,11.82,1.43,16.79c5.2,4.62,10.83,8.75,15.3,12.32l-30.44,31.46c-4.35-5.39-8.45-11.13-13.26-16.24-5.13-5.48-11.43-6.17-16.82-.58-5.17,5.37-3.66,11,1.27,16.1s10,10.35,13.43,13.88c-9.13,10.1-17.41,19.29-27.35,30.32-4.75-5.62-8.93-10.86-13.44-15.82-4.94-5.44-11-7.41-16.69-1.69-5.94,5.93-4.31,12.29,1.51,17.5,5,4.44,10.3,8.45,14.8,12.13l-30.52,31.2c-4.21-5.24-8.5-11.26-13.49-16.57s-11-5.62-16.1-.49-4.15,11,.7,16.14c3.3,3.5,7.32,6.47,9.91,10.37,1.9,2.85,3.2,7.05,2.7,10.33-1.31,8.85,4.44,15.84,13.17,13.4,5.79-1.62,8.85.12,12.21,3.92,2.74,3.12,5.81,6,8.81,8.85,5.29,5.17,11.21,6.73,16.8,1s4.06-11.7-1.31-16.82c-5-4.77-10.29-9.28-13.69-12.36,10.4-10.33,19.33-19.18,29.32-29.06,3.49,3.9,7.79,9.08,12.49,13.87,5.24,5.32,11.47,6.31,16.84.67,5-5.28,4-11.31-1.18-16.11s-10.75-9-15.71-13.12C332.57,247,341.31,238.26,351.67,227.87Z" transform="translate(-94.47 0)" fill-rule="evenodd"/><path d="M239.85,600a234.65,234.65,0,0,1-78.35-13.53c-37.1-13.37-53.28-42.82-60.82-78.7-11.82-56.36-5.54-111.91,8.41-167,1.32-5.25,2.8-10.49,4.51-15.63,3-9.14,5.44-9.75,12.26-3q26.9,26.7,53.66,53.54L370.85,567c9,9,8.44,11.22-3.74,14.78A437.55,437.55,0,0,1,239.85,600Z" transform="translate(-94.47 0)" fill-rule="evenodd"/><path d="M541.66,0c29.63-.18,58.58,3.44,86.59,13.68,33.45,12.21,50.16,37.94,58.44,70.68,11.83,46.83,9.59,93.87.93,140.78-3,16.3-7.37,32.36-11.67,48.39-3,11-5.54,11.45-13.75,3.23q-87.56-87.52-175.07-175.08Q452.56,67.1,418,32.45c-8.41-8.43-7.86-10.86,3.77-14.22C460.9,6.93,500.71-.16,541.66,0Z" transform="translate(-94.47 0)" fill-rule="evenodd"/><path d="M351.67,227.87c-10.36,10.39-19.1,19.11-29.84,29.86,5,4.12,10.59,8.37,15.71,13.12s6.21,10.83,1.18,16.11c-5.38,5.63-11.6,4.65-16.84-.67-4.7-4.8-9-10-12.49-13.87-10,9.89-18.92,18.73-29.32,29.06,3.4,3.08,8.68,7.59,13.69,12.36,5.38,5.12,6.86,11.12,1.31,16.82s-11.51,4.2-16.8-1c-3-2.89-6.06-5.73-8.81-8.85-3.36-3.8-6.42-5.54-12.21-3.92-8.73,2.45-14.48-4.55-13.17-13.4.5-3.28-.8-7.48-2.7-10.33-2.59-3.9-6.62-6.88-9.91-10.37-4.85-5.12-5.86-10.94-.7-16.14s11.24-4.67,16.1.49,9.28,11.33,13.49,16.57l30.52-31.2c-4.5-3.67-9.83-7.69-14.8-12.13-5.82-5.21-7.46-11.57-1.51-17.5,5.74-5.73,11.75-3.75,16.69,1.69,4.51,5,8.68,10.2,13.44,15.82,9.94-11,18.22-20.22,27.35-30.32-3.4-3.54-8.37-8.77-13.43-13.88s-6.44-10.72-1.27-16.1c5.39-5.59,11.68-4.9,16.82.58,4.81,5.11,8.91,10.85,13.26,16.24l30.44-31.46c-4.47-3.57-10.1-7.7-15.3-12.32-5.61-5-6.79-11.22-1.43-16.79s11.52-4.21,16.83,1c2.5,2.46,5,4.93,7.51,7.41,4,4,6.94,8,14.45,4.84,6.83-2.93,14.14,5,11.67,12.67-2.05,6.35.43,9.45,4.3,13,2.12,1.93,4.13,4,6.16,6,7.71,7.81,8.78,13.56,3.54,19s-11.74,4.5-18.91-3c-4.16-4.36-7.69-9.29-11.44-13.9-10.49,10.76-19.15,19.61-29.69,30.4,4.7,4.08,10.08,8.48,15.11,13.22,5.43,5.15,6.65,11.4,1.15,16.86s-11.71,4-16.83-1.35C360.37,237.69,356,232.63,351.67,227.87Z" transform="translate(-94.47 0)" fill="#fff" fill-rule="evenodd"/></svg>