<svg id="abc2a361-7462-4397-9b14-1cebe199fdf5" data-name="Layer 1" xmlns="http://www.w3.org/2000/svg" viewBox="0 0 628.13 599.35"><title>Subscribe2</title><path d="M224.13,582.86c3.89-22.47,8-46.58,12.23-70.69,2-11.29,4.41-22.52,5.71-33.88.37-3.23-1.63-7.73-4-10.13q-35.65-35.44-71.89-70.27c-5-4.81-8.92-9.76-6.62-17,2.37-7.5,9.05-8.7,15.6-9.64,31.89-4.56,63.77-9.17,95.7-13.45,7.34-1,11.86-3.83,15.24-10.94C300,317.5,314.66,288.55,329,259.42c3-6.08,6.58-12.93,14-10.95,5.05,1.35,10.59,6.25,13.06,11,15.08,29.1,29.51,58.53,43.72,88.07,2.87,6,6.51,9,13,9.92,32.21,4.44,64.38,9.14,96.57,13.75,6.79,1,14,1.47,16.43,9.64,2.27,7.7-2.11,12.76-7.27,17.75-23.87,23.08-47.67,46.23-71.14,69.71a14.59,14.59,0,0,0-3.61,11c5.13,32.1,10.83,64.11,16.34,96.16a78.34,78.34,0,0,1,1,8.31c.79,12.49-8.77,19.08-20,13.32-22.35-11.44-44.44-23.39-66.71-35-10.67-5.55-21.49-14.93-32.26-15-10.42,0-20.89,9.67-31.31,15.14-22,11.53-43.82,23.23-65.87,34.59C233.54,602.76,223.82,596.83,224.13,582.86Z" transform="translate(-109.48)"/><path d="M582.79,547.63c-3.93-23.23-7.45-43.94-10.95-64.66-5.94-35.13-12-70.24-17.55-105.44-.59-3.75,1-9.22,3.66-11.87,20.11-20.23,41.09-39.61,61.1-59.94s39.08-41.29,58.32-61.73c-11.51-1.72-25.35-3.83-39.2-5.85-43.23-6.3-86.48-12.46-129.65-19.08-2.87-.44-6.26-3.74-7.67-6.57-24-48-47.63-96.08-71.39-144.15-1.59-3.22-3.33-6.37-5.91-11.26-3.78,7.42-6.86,13.29-9.8,19.24-22.38,45.27-44.62,90.61-67.33,135.71-1.67,3.33-6.37,6.64-10.09,7.2-56,8.56-112.13,16.66-170.9,25.26l93.2,90.94c-12.6,1.91-23.52,2.81-34,5.39-10.05,2.47-16.48-1-23.42-8-26.51-26.61-53.53-52.71-80.58-78.78-8.12-7.82-13.89-16.06-9.72-27.84,4-11.29,13.36-14.16,24.14-15.69Q224.29,198,313.45,184.51c3.24-.49,7-4.53,8.61-7.84q40.12-80.25,79.68-160.77C406,7.35,411.37.74,421.73.06c12-.79,18.78,5.75,23.72,15.83Q478,82.29,510.87,148.5c3.84,7.78,8.53,15.26,11.32,23.4,3.54,10.36,10.56,13.28,20.61,14.64,57.71,7.84,115.35,16.25,173,24.51,9.91,1.42,17.54,5.9,20.71,16.13s-.87,18-8,24.94c-42.69,41.52-85.2,83.22-128,124.59-5,4.85-6.82,9.33-5.6,16.2,10.42,58.88,20.46,117.82,30.89,176.7,1.79,10.11.08,18.63-8.15,25-8.64,6.66-17.63,5.77-27,.79-35.85-19.09-71.91-37.81-107.65-57.11-3.39-1.83-6.57-6.36-7.43-10.18-2.91-12.91-4.73-26.07-7.17-40.36Z" transform="translate(-109.48)"/></svg>