<svg xmlns="http://www.w3.org/2000/svg" viewBox="0 0 800.11 432.23" version="1.1">
  <path d="M61.91,252.61c9.24,2.23,15.85,2.71,19.3-10,4-14.88,16.21-22.33,32.18-22.3,26.58.05,53.16,0,82.34,0,0-8.76-.07-16.84,0-24.92.42-40.75,27.45-72.35,67.7-73.8,53.14-1.91,106.46-1.92,159.6,0,40.11,1.42,66.63,32.15,67.07,72.29.09,8.2,0,16.4,0,26.45,26.63,0,51.51,0,76.4,0,29.61.05,41.23,11.86,41.36,42,0,8.21,0,16.42,0,26.44,21.93,0,42.16.61,62.3-.49,4.27-.23,8.83-6.23,12.16-10.44,20.6-26.08,47.12-40.78,80.48-41.58,21.54-.52,36.53,12.9,36.73,34.08q.89,92.34,0,184.7c-.21,21.12-15.4,34.54-36.83,34-33.38-.85-60.46-15.05-80.05-41.91-6-8.25-12-11.38-21.91-10.94-16.61.74-33.27.2-52.88.2,0,14.66,0,28.43,0,42.21-.12,29.85-12,42-41.49,42q-153.38.08-306.75,0c-79.13,0-140-41.81-167.47-116.54C85.05,384.72,81.5,364.13,76,343c-9-3.29-14.91-.94-19,10.9-6,17.14-20,26.25-38,28.17C7.69,383.26.29,378,.2,366.36Q-.37,298.28,0,230.19c.07-12.46,7.55-17.25,19.67-16.39C38.71,215.14,50.38,225.63,61.91,252.61Zm280.75,168c21.89,0,43.78.34,65.66-.1,20-.4,33.64-13.45,34.33-33.05.6-17.18.62-34.41,0-51.58-.66-17.67-12.7-31.4-30.36-31.75q-68.74-1.36-137.52,0c-17.32.32-28.78,12.77-29.85,30.19-1,16.61-1.05,33.34-.55,50,.72,24,13.43,36.08,37.36,36.28C302,420.73,322.34,420.6,342.66,420.6Zm98.66-201c0-9.45.44-17.21-.09-24.9-1.08-15.7-9-24.36-24.55-24.52-48.93-.49-97.87-.39-146.8,0-12.75.09-22.37,6.46-24.08,19.89-1.21,9.52-.23,19.32-.23,29.57Z" transform="translate(0.11 -88.33)"/>
  <path d="M642.34,88.38c32.88,0,65.76-.11,98.64,0,22.86.1,39.14,15.29,38.91,35.9-.22,20-16.17,35.56-37.95,35.66q-100.2.43-200.41,0c-22.18-.1-39.16-17.14-38.29-37.06.88-20.12,16.78-34.4,38.89-34.5C575.54,88.28,608.94,88.38,642.34,88.38Z" transform="translate(0.11 -88.33)"/>
</svg>
