<svg width="17.067" height="17.067" viewBox="0 0 16 16" xmlns="http://www.w3.org/2000/svg"><g><path d="M7.99 1c-3.854 0-7 3.146-7 7s3.146 7 7 7 7-3.145 7-7-3.146-7-7-7zm0 1.994A4.996 4.996 0 0 1 12.996 8a4.996 4.996 0 0 1-5.006 5.007A4.996 4.996 0 0 1 2.984 8 4.996 4.996 0 0 1 7.99 2.994z"/><path d="M8.01 4c-1.115 0-2.12.456-2.847 1.189a.464.464 0 0 0 .063.242c.1.167.194.331.321.461.095-.299.406-.516.777-.516a.82.82 0 0 1 .714.383c.267-.278.517-.607 1.058-.633.904-.042.994.665 1.906.852.592.122 1.126.04 1.443-.03A4.011 4.011 0 0 0 8.01 4zm-.384.422c.085-.012.165.012.204.063.052.068.007.164-.102.211-.11.048-.246.029-.298-.039-.053-.068 0-.164.11-.211a.343.343 0 0 1 .086-.024zm-.604.172a.328.328 0 0 1 .243.11c.087.113.009.273-.173.352-.182.079-.4.05-.486-.063-.087-.113-.009-.273.173-.352a.556.556 0 0 1 .14-.039c.037-.004.069-.009.103-.007zm.494.337c.06-.008.121.01.149.046.037.048-.001.115-.078.149-.078.033-.168.016-.204-.031-.037-.048-.007-.108.07-.141.02-.008.043-.02.063-.024zm.988.907c-.52-.026-.773.399-.816.782-.042.382.972.182.644.75a.896.896 0 0 1-.094.133c-.04.286-.315.508-.651.508a.706.706 0 0 1-.408-.133c-.015.07-.03.155-.04.274-.03.422.268.759.33 1.024.068-.129.13-.27.18-.43.096.398.22.654.346.907.39-.035.7-.228 1.003-.437a4.907 4.907 0 0 1-.666 1.055c.568.22 1.098.17 1.608.007-.358.299-.706.532-1.436.602.527.159 1.112.339 1.843.118-.671.387-1.377.68-2.196.656l.808-.007-1.623.07-.847-.156.031-.375c-.354.04-.748-.158-1.13-.281.344-.152.712-.272.942-.563-.402-.08-.618-.344-.886-.556-.175.212-.307.412-.526.407-.4-.008-.53-.56-.478-.884.051-.323.69-.16.682-.406a.91.91 0 0 0 .196.156c.386.224.862.128 1.06-.21.197-.34.048-.794-.338-1.018-.386-.223-.861-.127-1.059.212a.662.662 0 0 0-.007.633c-.209-.186-.565-.352-.565-.352l-.376-.813a4 4 0 0 0 3.976 4.488 4.004 4.004 0 0 0 3.992-3.636c-.1-.288-.39-1.085-.698-1.267-.021-.012-.041-.014-.062-.023.024.056.03.115.007.156-.038.066-.127.065-.204-.007a.274.274 0 0 1-.087-.164c-.205.07-.356.304-.408.547-.076.366.44.954.44.954-.353 0-.863.026-1.051-.477-.16-.428.158-1.043-.173-1.36 0 0-.742-.858-1.262-.884zm2.282 1.618c.016-.003.03 0 .047 0 .07.004.148.041.22.11.145.136.203.345.133.469s-.239.113-.384-.024c-.145-.136-.203-.345-.133-.469a.172.172 0 0 1 .118-.086zm-4.51 1.846a.924.924 0 0 0-.227.039c-.258.077-.426.237-.564.398.371.085.725.275 1.13.165a3.332 3.332 0 0 1-.15-.587 1.045 1.045 0 0 0-.188-.015zm.762.187c.026.045.049.089.078.133a.97.97 0 0 0 .11-.094.625.625 0 0 1-.189-.039zm.36.641c-.39 0-.706.24-.706.532s.316.524.706.524c.39 0 .706-.232.706-.524s-.316-.532-.706-.532zm0 .212c.234 0 .424.146.424.32 0 .175-.19.313-.424.313-.233 0-.423-.138-.423-.313 0-.174.19-.32.423-.32zm2.557.226c.073.007.105.091.07.188-.034.097-.114.163-.187.156-.074-.007-.105-.09-.071-.187s.115-.164.188-.157z" fill-rule="evenodd"/></g></svg>
