<svg height="16" xmlns="http://www.w3.org/2000/svg" width="16"><path d="M8 3C5.25 3 3 5.25 3 8c0 1.783.958 3.363 2.375 4.25a3.4 3.4 0 0 1 .531-.188c.229-1.816 1.72-3.25 3.594-3.25 1.003 0 1.839.474 2.5 1.126.175-.034.308-.126.5-.126h.125C12.849 9.246 13 8.643 13 8c0-2.75-2.25-5-5-5z" overflow="visible"/><g transform="translate(-81 -277)"><rect x="81" y="284" rx=".563" ry=".563" height="2" width="2" overflow="visible"/><rect x="95" y="284" rx=".563" ry=".563" height="2" width="2" overflow="visible"/></g><rect x="81" y="284" rx=".563" height="2" ry=".563" width="2" overflow="visible" transform="rotate(90 187 106)"/><g transform="rotate(135 105.869 129.724)"><rect x="81" y="284" rx=".563" height="2" ry=".563" width="2" overflow="visible"/><rect x="95" y="284" rx=".563" height="2" ry=".563" width="2" overflow="visible"/></g><rect x="81" y="284" rx=".563" height="2" ry=".563" width="2" overflow="visible" transform="rotate(45 382.869 48.724)"/><path d="M9.5 10A2.5 2.5 0 0 0 7 12.5c0 .218.041.423.094.625A1.549 1.549 0 0 0 6.5 13a1.5 1.5 0 1 0 0 3h8a1.5 1.5 0 1 0 0-3 2 2 0 0 0-2-2c-.316 0-.61.088-.875.219A2.47 2.47 0 0 0 9.5 10z" overflow="visible"/></svg>
