<svg xmlns="http://www.w3.org/2000/svg" viewBox="0 0 599.01 599.01" version="1.1">
  <path d="M399.5,600C234.35,600,100,465.64,100,300.49S234.35,1,399.5,1,699,135.35,699,300.49,564.65,600,399.5,600Zm0-581.64c-155.57,0-282.13,126.57-282.13,282.13S243.94,582.62,399.5,582.62,681.62,456.06,681.62,300.49,555.07,18.36,399.5,18.36Z" transform="translate(-99.99 -0.99)"/>
  <path d="M207,471.63c-87.21-94.21-95.08-250.14,2.11-354.82C312.6,5.38,486,5.61,589.7,111.14,691.77,215,687.61,376.52,594.28,475c-1.75-2.25-3.42-4.5-5.2-6.65-12.47-15-28.5-25.34-45.61-34.15-21.66-11.17-44.67-19.07-67.5-27.37-4.59-1.67-9.09-3.62-13.73-5.08-8-2.54-12.09-8.22-12.66-16.2-.67-9-.65-18-.84-27.05a2.7,2.7,0,0,1,1.15-2c6.74-4.25,10.38-10.83,13.25-17.87a103,103,0,0,0,7.38-32.45c.11-1.85.46-3.07,2.46-3.87,4.29-1.69,7-5.2,8.69-9.3,1.55-3.9,2.36-8.1,3.54-12.15.91-3.15,1.76-6.33,2.86-9.41,1.72-4.78,3.93-9.41,5.4-14.27,2-6.64.55-8.84-6.79-10.54.64-4.82,1.07-9.75,2-14.59,2.43-12.81,5.27-25.56,7.56-38.4,1.48-8.37,2-16.89-.18-25.3-1.79-6.78-6-11.08-12.91-13.16-9.15-2.78-16.91-7.67-22.15-16.11-4.35-7-11.27-11-19.2-10.8-10.86.29-20.65-3.3-30.76-5.91-9.53-2.46-19.19-4.49-28.89-1.37-7,2.23-13.72,5.07-20.46,7.9a41.47,41.47,0,0,1-13.75,3.6c-6.61.41-11.36,4.27-14.39,9.82a24,24,0,0,1-14.24,11.53c-13.38,4.4-18.26,14.55-18.57,27.41-.29,12.56,3.07,24.57,5.89,36.67,1.85,7.95,3.51,15.94,5.16,23.93a37,37,0,0,1,.33,4.91c-7.19,1.44-8.54,3.66-6.63,10.57a46.14,46.14,0,0,0,2.1,6c3.05,7.23,5.82,14.49,7.22,22.33,1.31,7.38,4.69,13.88,12.17,17.26.68.3,1.12,1.63,1.23,2.55,1.11,10.48,2.91,20.81,6.7,30.7,3.07,8,6.8,15.6,14.39,20.46a2.8,2.8,0,0,1,1,2.08c-.35,9.53-.57,19.08-1.29,28.59A13.89,13.89,0,0,1,339.83,400c-11.26,4.39-22.5,8.85-33.83,13-23,8.52-45.85,17.4-66.77,30.52-11.59,7.28-22.16,15.75-30.77,26.47C208.05,470.53,207.61,471,207,471.63Z" transform="translate(-99.99 -0.99)" fill-rule="evenodd"/>
</svg>
