<svg id="5480c252-7308-4392-9f17-900b846361c0" data-name="Layer 1" xmlns="http://www.w3.org/2000/svg" viewBox="0 0 415.53 600"><title>logout1</title><path d="M561.83,272.86c-.23-.34-.41-.74-.63-1.11-15-1-48.41-.87-50.35-.87a14.84,14.84,0,0,1-11.6-5,14,14,0,0,1-4.3-3.68l-.14.2c-1.51-1.22-3-2.38-4.46-3.61-24.27-20.59-52.17-31.89-84.1-32.73-22.3-.59-44.56-1-66.17,6.21a138.72,138.72,0,0,0-46.87,26.42c-1.22,1-2.4,2.13-3.65,3.14-.26.21-.73.17-1.34.29,0-29.62-.43-77,.17-106.29.31-15.28,5.88-29.42,13.6-42.58a104,104,0,0,1,111.4-49c44.08,9.54,77.91,45.62,81.3,90.17.25,3.3.44,6.74.61,10.24a14,14,0,0,1,3.48-.46c16.91,0,16.88,26.24,0,26.24a14.55,14.55,0,0,1-2.84-.28c0,5.7,0,11.3,0,16.58.62-.17,53.64-1.55,62-.87,0-2.41,0-4.82,0-7.24.29,0,.73-39.59-2.3-58.9C541.85,52.28,463.36-7.58,374.81.78c-81.56,7.69-146.56,76.52-148.9,158.29-.81,28.3-.2,74.76-.54,103.08a18.92,18.92,0,0,1-3.15,9.9C190.34,318.51,178,369.61,186.55,425.3,205,545.17,326,624.09,443.62,593.33,584.36,556.53,644.61,393,561.83,272.86ZM391.68,561.3c-82.13,0-148.94-66.82-148.94-148.94s66.82-148.95,148.94-148.95,148.94,66.82,148.94,148.95S473.81,561.3,391.68,561.3Z" transform="translate(-183.91)"/><path d="M391.68,278.52c-73.8,0-133.84,60-133.84,133.84s60,133.84,133.84,133.84,133.84-60,133.84-133.84S465.48,278.52,391.68,278.52ZM417,404c-3.35,2.49-4.4,5-4.37,9q.23,30.7,0,61.41c0,8.72-3.79,15.55-11.71,19.55-7.48,3.78-14.84,3-21.59-1.86-6.42-4.57-8.74-11.2-8.73-18.86,0-20.07-.08-40.14.09-60.2,0-3.94-1-6.47-4.34-9a40.6,40.6,0,0,1-14.12-46.2,41.68,41.68,0,0,1,78.83,0A40.64,40.64,0,0,1,417,404Z" transform="translate(-183.91)"/></svg>