<svg xmlns="http://www.w3.org/2000/svg" viewBox="0 0 709 599.83" version="1.1">
  <text transform="translate(88.5 230.37)" font-size="162.77" font-family="Impact, Impact">NEWS</text>
  <path d="M156.68,536.62H134.53c-35.7,0-67.85-21.31-79.37-55.19-5.2-15.29-8.68-32-8.75-48.05-.65-135-.35-270-.26-405C46.16,8.86,54.41.65,74,.65q243-.08,485.94-.18c12.74,0,21.93,4.36,26.82,14.47,38.21,0,75.35-1.33,112.33.4,32.54,1.52,56,29.45,55.93,62.71q-.85,238.27-1.87,476.55c0,7.82.34,15.68-.23,23.47-1,13.45-10.95,22.34-24.07,22.23-53.57-.45-107.15-1.19-160.72-1.27Q378.56,598.75,189,599c-25.11,0-32.25-7.14-32.31-32C156.67,557.29,156.68,547.62,156.68,536.62Zm384-488.05H93.93c-.25,3.84-.62,6.86-.63,9.89q-.14,186.6,0,373.2a102,102,0,0,0,3.69,25.41c5.75,21.94,19.15,32,41.54,32,31.27,0,62.53-.2,93.8-.19q127.34,0,254.67.17c20.26,0,40.51,0,59.6,0-2.12-21-5.76-40.68-5.84-60.41-.46-122-.12-244.08,0-366.13C540.68,58.32,540.68,54.09,540.68,48.57ZM705.2,551.38c.29-4.57.59-7.28.6-10q.93-230.07,1.8-460.14c0-13.37-5.54-18.74-18-18.93-13.49-.2-12.13,9-12.13,17.7,0,115,.43,230.09-.46,345.12-.17,22-3.61,44.52-8.88,66-8.28,33.72-25.48,45.47-59.88,45.47H218.57c-3.13,0-6.61-.79-9.28.32-2.18.91-4.79,4.18-4.69,6.3.12,2.74,2.14,6.41,4.46,7.74s6.09.42,9.22.42H705.2ZM588.26,63.18c0,3.69,0,7.49,0,11.3q0,62.19,0,124.38c-.05,75.89-.49,151.79.08,227.68.12,15.39,2.95,31,6.66,46,1.4,5.66,8.2,10.81,13.71,14.41,6.25,4.09,12.12,2.66,13.35-6.27,2.65-19.3,7.45-38.59,7.56-57.9.66-113,.21-226.1.14-339.16,0-6.53,0-13.07,0-20.42Z" transform="translate(-46 -0.46)"/>
  <path d="M137.94,358.42V335.67H499.71v22.75Z" transform="translate(-46 -0.46)"/>
  <path d="M137.91,308.9V286.09H498.53c.7,1.06,1.42,1.66,1.48,2.33,2,21.1,2,21.25-19.22,21.06-34.3-.32-68.6-1.29-102.89-1.22-76.17.16-152.33.81-228.5,1.22C145.95,309.49,142.48,309.14,137.91,308.9Z" transform="translate(-46 -0.46)"/>
  <path d="M137.9,406.66V383.83H480.11c21,0,21,0,19.92,22.83Z" transform="translate(-46 -0.46)"/>
  <path d="M138,457.52V435.25H499.89v22.27Z" transform="translate(-46 -0.46)"/>
</svg>
