<svg id="fe361391-e2e0-4976-8768-c68b07f6d613" data-name="Layer 1" xmlns="http://www.w3.org/2000/svg" viewBox="0 0 794.41 598.92"><title>Subscribe</title><path d="M732.44,186.32c34.38,19.39,55.5,46.54,62.76,83.48,3.76,19.11-.68,35.23-21.47,47.14Q534.88,453.77,296.91,592.12c-14.84,8.6-28.84,9.17-43.08,1-57.09-32.7-115.49-63.42-170.5-99.33C32.7,460.75,6.46,410.18,2.13,349.58c-.84-11.79,2.57-24.17,5.61-35.86s11.41-19.85,21.83-25.87q239.71-138.34,479.21-277c24.31-14.16,46.83-14.35,70.11-1q100.75,57.6,201,116c2.3,1.33,3.35,4.93,4.76,7.59.41.78-.08,2,.1,2.94,2.52,14.11-2.22,23.29-16.1,29.23C756.4,170.81,745.29,178.81,732.44,186.32ZM77.41,288c7,3.89,13,7.15,19,10.58q95,54.75,189.88,109.61c4.62,2.68,8.13,3.45,13.35.43Q526.7,277.14,754,146.06a47.34,47.34,0,0,0,5.36-4.29c-2.09-1.4-3.41-2.39-4.83-3.21-55.85-32.22-112-64-167.46-96.81-28.92-17.11-55.8-16.4-84.8.55C387.78,109.19,272.74,175.14,157.91,241.44,131.32,256.79,104.75,272.18,77.41,288ZM305.14,559c3.41-1.76,6.34-3.12,9.12-4.73q189-109.09,378-218.27c21.74-12.57,43.5-25.19,64.43-39,13.18-8.72,19.32-22.41,13.94-38.07-3.34-9.73-8.11-20.17-15.3-27.1-10.05-9.68-23.38-15.85-34.54-24.51-9.06-7-16.07-5.45-25.46,0Q499.32,321.13,303,434.36c-7.18,4.16-12.53,4.2-19.75-.06-36.44-21.52-73.2-42.5-110-63.45-2.75-1.57-7.36-3-9.63-1.79-16.2,8.76-32,18.22-49.08,28.11L204.11,449c14.31,8.28,28.67,16.47,42.92,24.85C279.49,492.88,297.91,521.72,305.14,559Zm-162-206.18C121.29,340.63,102.19,328.65,82,319c-27.39-13-49.68-.76-55,29a64.3,64.3,0,0,0-.8,19.71c6.29,45.45,27.53,81.86,67.44,105.62,40.62,24.18,81.84,47.37,122.83,70.93,12.61,7.25,24.89,15.3,38.17,21,5.75,2.48,15.37,2.39,20-1,4.11-2.95,5.89-12.4,5-18.44-3-20.79-16.15-34.87-33.86-45.1-46.09-26.62-91.92-53.73-138.47-79.53-12.73-7.06-19.83-14.09-17.06-29.56,1.1-6.17,2.38-10.05,8-13.11C112.68,370.7,126.78,362.25,143.11,352.8Z" transform="translate(-2)"/><path d="M169.81,272.69C192,260.18,213.49,248.07,235,236c20.75-11.67,41.41-23.5,62.38-34.76,3.07-1.65,8.55-2.11,11.35-.47C349.47,224.7,390,249.09,430.52,273.4a32.64,32.64,0,0,1,3.21,2.77c-6,3.45-11.48,6.67-17,9.79-36.6,20.58-73.16,41.23-109.92,61.52-3.11,1.72-8.62,2.61-11.33,1-40.8-23.89-81.32-48.27-121.89-72.56A34.68,34.68,0,0,1,169.81,272.69Z" transform="translate(-2)"/><path d="M330.45,182.48c28.11-15.83,54.54-30.75,81-45.61,39.49-22.17,79.13-44.09,118.41-66.64,7.19-4.13,12.68-5.39,19.47.08,4.57,3.68,10,6.25,16.33,10.05-5.84,3.51-10.74,6.64-15.8,9.48-61.39,34.47-122.87,68.8-184.14,103.5-6.51,3.69-11.46,4.78-17.67-.13C343.17,189.36,337.39,186.64,330.45,182.48Z" transform="translate(-2)"/><path d="M435.28,245.1l85-47.75c38.61-21.68,77.34-43.15,115.72-65.23,6.82-3.93,11.83-3.81,17.84.59,5,3.66,10.48,6.62,16.85,10.57-25.62,14.46-50,28.28-74.46,42C554.5,208.74,512.6,232,471,255.74c-6.9,3.94-12.22,4.76-18.68-.19C447.46,251.82,441.84,249.06,435.28,245.1Z" transform="translate(-2)"/><path d="M618.39,111.89C600,122.3,582.53,132.25,565,142.09c-48.14,27-96.45,53.77-144.34,81.23-8.55,4.9-15.14,6.18-22.94-.38-3.91-3.3-8.76-5.48-14.79-9.15,21.57-12.15,41.58-23.44,61.6-34.69,45.25-25.43,90.68-50.54,135.61-76.53,9-5.19,15.81-6,23.87.34C608.1,106.14,612.88,108.49,618.39,111.89Z" transform="translate(-2)"/><path d="M326.92,500.76l-16.68-25c10.28-6,19.85-11.72,29.49-17.29q178.1-102.86,356.11-205.87c8.6-5,15.14-6.81,23.83-.35,11.66,8.67,11.9,15.26-1,22.83-18.82,11-37.77,21.79-56.66,32.68Q498.85,401.92,335.74,496.05C332.95,497.66,330.05,499.1,326.92,500.76Z" transform="translate(-2)"/></svg>